{"glyphs":{"0":{"ha":769,"x_min":0,"x_max":0,"o":"m 60 276 b 56 485 56 322 56 368 b 60 692 56 601 56 646 b 385 989 76 861 217 989 b 710 692 553 989 693 861 b 714 485 714 646 714 601 b 710 276 714 368 714 322 b 385 -21 693 107 553 -21 b 60 276 217 -21 76 107 m 163 283 b 385 82 174 167 269 82 b 607 283 500 82 596 167 b 611 485 611 324 611 371 b 607 685 611 599 611 644 b 385 886 596 801 500 886 b 163 685 269 886 174 801 b 158 485 158 644 158 599 b 163 283 158 371 158 324 "},"1":{"ha":418,"x_min":0,"x_max":0,"o":"m 186 868 l 53 868 l 53 968 l 294 968 l 294 0 l 186 0 "},"2":{"ha":697,"x_min":0,"x_max":0,"o":"m 18 71 l 453 561 b 517 715 496 611 517 660 b 344 886 517 810 439 886 b 174 714 250 886 174 808 l 67 714 b 346 989 67 865 192 989 b 625 714 500 989 625 865 b 525 485 625 658 607 578 l 179 100 l 649 100 l 649 0 l 18 0 "},"3":{"ha":779,"x_min":0,"x_max":0,"o":"m 110 224 b 375 82 147 135 246 82 b 619 304 518 82 619 172 b 361 522 619 431 522 522 b 250 506 322 522 285 517 l 211 575 l 524 868 l 106 868 l 106 968 l 688 968 l 688 896 l 379 610 b 407 613 383 611 397 613 b 722 304 583 613 722 483 b 375 -21 722 111 575 -21 b 17 181 206 -21 71 56 "},"4":{"ha":793,"x_min":0,"x_max":0,"o":"m 74 288 l 410 968 l 526 968 l 203 315 l 579 315 l 579 526 l 688 526 l 688 0 l 579 0 l 579 215 l 74 215 "},"5":{"ha":771,"x_min":0,"x_max":0,"o":"m 132 221 b 358 82 172 136 261 82 b 604 317 489 82 604 188 b 372 554 604 447 500 554 b 192 492 301 554 236 529 l 115 510 l 197 968 l 646 968 l 646 868 l 289 868 l 246 631 b 371 657 282 647 325 657 b 715 325 585 657 715 488 b 358 -21 715 115 553 -21 b 39 176 219 -21 96 58 "},"6":{"ha":782,"x_min":0,"x_max":0,"o":"m 56 319 b 188 618 56 421 113 507 b 419 968 196 629 203 640 l 549 968 l 326 638 b 406 646 351 643 379 646 b 729 321 575 646 729 504 b 393 -21 729 128 578 -21 b 56 319 208 -21 56 129 m 165 315 b 393 82 165 181 265 82 b 626 315 521 82 626 188 b 393 547 626 443 521 547 b 165 315 261 547 165 449 "},"7":{"ha":761,"x_min":0,"x_max":0,"o":"m 582 868 l 50 868 l 50 968 l 711 968 l 711 893 l 274 0 l 154 0 "},"8":{"ha":753,"x_min":0,"x_max":0,"o":"m 53 293 b 225 560 53 432 133 522 b 126 739 167 600 126 664 b 376 989 126 876 239 989 b 626 739 514 989 626 876 b 528 560 626 664 586 600 b 700 293 619 522 700 432 b 376 -21 700 121 557 -21 b 53 293 196 -21 53 121 m 376 592 b 519 739 456 592 519 658 b 376 886 519 819 456 886 b 233 739 297 886 233 819 b 376 592 233 658 297 592 m 161 293 b 376 82 161 176 258 82 b 592 293 494 82 592 176 b 376 504 592 410 494 504 b 161 293 258 504 161 410 "},"9":{"ha":767,"x_min":0,"x_max":0,"o":"m 457 350 b 374 338 433 343 403 338 b 54 654 214 338 54 465 b 383 989 54 843 204 989 b 713 660 578 989 713 839 b 571 336 713 549 651 457 b 349 0 567 329 561 322 l 219 0 m 383 433 b 610 660 528 433 610 535 b 383 886 610 785 508 886 b 157 660 258 886 157 785 b 383 433 157 535 258 433 "}," ":{"ha":572,"x_min":0,"x_max":0,"o":""},"A":{"ha":1000,"x_min":0,"x_max":0,"o":"m 458 968 l 542 968 l 951 0 l 835 0 l 735 239 l 265 239 l 165 0 l 49 0 m 693 339 l 500 800 l 307 339 "},"B":{"ha":822,"x_min":0,"x_max":0,"o":"m 128 968 l 424 968 b 683 721 569 968 683 864 b 560 526 683 628 638 557 b 754 286 688 500 754 407 b 460 0 754 122 629 0 l 128 0 m 417 564 b 575 717 508 564 575 629 b 418 868 575 803 510 868 l 236 868 l 236 564 m 453 100 b 646 286 564 100 646 179 b 451 467 646 389 565 467 l 236 467 l 236 100 "},"C":{"ha":988,"x_min":0,"x_max":0,"o":"m 65 483 b 569 986 65 774 290 986 b 939 822 718 986 847 925 l 865 756 b 569 886 794 838 692 886 b 174 483 342 886 174 714 b 569 81 174 253 342 81 b 869 217 692 81 799 131 l 943 150 b 569 -19 851 43 718 -19 b 65 483 290 -19 65 193 "},"D":{"ha":1008,"x_min":0,"x_max":0,"o":"m 128 968 l 439 968 b 939 483 753 968 939 769 b 440 0 939 197 754 0 l 128 0 m 432 100 b 831 483 701 100 831 258 b 431 868 831 710 701 868 l 236 868 l 236 100 "},"E":{"ha":763,"x_min":0,"x_max":0,"o":"m 128 968 l 675 968 l 675 868 l 236 868 l 236 561 l 649 561 l 649 461 l 236 461 l 236 100 l 685 100 l 685 0 l 128 0 "},"F":{"ha":703,"x_min":0,"x_max":0,"o":"m 128 968 l 633 968 l 633 868 l 236 868 l 236 556 l 599 556 l 599 456 l 236 456 l 236 0 l 128 0 "},"G":{"ha":1028,"x_min":0,"x_max":0,"o":"m 65 483 b 569 986 65 774 290 986 b 904 860 700 986 815 942 l 836 785 b 569 886 767 849 675 886 b 174 483 342 886 174 713 b 569 81 174 253 342 81 b 835 178 674 81 765 117 l 835 428 l 539 428 l 539 528 l 943 528 l 943 140 b 569 -19 850 40 718 -19 b 65 483 290 -19 65 193 "},"H":{"ha":1010,"x_min":0,"x_max":0,"o":"m 128 968 l 236 968 l 236 564 l 774 564 l 774 968 l 882 968 l 882 0 l 774 0 l 774 464 l 236 464 l 236 0 l 128 0 "},"I":{"ha":375,"x_min":0,"x_max":0,"o":"m 133 968 l 242 968 l 242 0 l 133 0 "},"J":{"ha":431,"x_min":0,"x_max":0,"o":"m 19 96 b 93 82 40 88 69 82 b 201 263 188 82 201 165 l 201 968 l 310 968 l 310 267 b 100 -19 310 125 294 -19 b 19 -7 71 -19 46 -15 "},"K":{"ha":886,"x_min":0,"x_max":0,"o":"m 128 968 l 236 968 l 236 454 l 701 968 l 835 968 l 449 546 l 846 0 l 715 0 l 376 467 l 236 314 l 236 0 l 128 0 "},"L":{"ha":689,"x_min":0,"x_max":0,"o":"m 128 968 l 236 968 l 236 100 l 635 100 l 635 0 l 128 0 "},"M":{"ha":1193,"x_min":0,"x_max":0,"o":"m 128 968 l 228 968 l 597 354 l 967 968 l 1065 968 l 1065 0 l 958 0 l 958 754 l 597 163 l 235 753 l 235 0 l 128 0 "},"N":{"ha":1043,"x_min":0,"x_max":0,"o":"m 128 968 l 222 968 l 807 193 l 807 968 l 915 968 l 915 0 l 828 0 l 236 783 l 236 0 l 128 0 "},"O":{"ha":1139,"x_min":0,"x_max":0,"o":"m 65 483 b 569 986 65 774 290 986 b 1074 483 849 986 1074 774 b 569 -19 1074 193 849 -19 b 65 483 290 -19 65 193 m 172 483 b 569 81 172 253 342 81 b 965 483 797 81 965 253 b 569 886 965 714 797 886 b 172 483 342 886 172 714 "},"P":{"ha":796,"x_min":0,"x_max":0,"o":"m 128 968 l 438 968 b 733 674 600 968 733 843 b 438 379 733 503 600 379 l 236 379 l 236 0 l 128 0 m 433 479 b 625 674 543 479 625 563 b 433 868 625 785 543 868 l 236 868 l 236 479 "},"Q":{"ha":1139,"x_min":0,"x_max":0,"o":"m 65 483 b 569 986 65 774 290 986 b 1074 483 849 986 1074 774 b 932 128 1074 340 1019 217 l 1035 1 l 958 -61 l 856 65 b 569 -19 775 11 675 -19 b 65 483 290 -19 65 193 m 172 483 b 569 81 172 253 342 81 b 790 144 653 81 728 104 l 632 339 l 708 401 l 865 208 b 965 483 928 279 965 375 b 569 886 965 714 797 886 b 172 483 342 886 172 714 "},"R":{"ha":842,"x_min":0,"x_max":0,"o":"m 128 968 l 458 968 b 749 679 618 968 749 846 b 564 404 749 550 672 446 l 797 0 l 674 0 l 456 383 l 454 383 l 236 383 l 236 0 l 128 0 m 447 483 b 640 679 558 483 640 567 b 454 868 640 786 561 868 l 236 868 l 236 483 "},"S":{"ha":764,"x_min":0,"x_max":0,"o":"m 150 256 b 393 81 193 151 269 81 b 588 251 569 81 588 201 b 371 467 588 367 507 407 b 117 746 224 532 117 589 b 382 986 117 885 229 986 b 643 832 506 986 589 932 l 550 785 b 381 886 514 853 464 886 b 225 749 296 886 225 829 b 422 558 225 644 306 611 b 696 253 600 479 696 415 b 392 -19 696 99 590 -19 b 57 213 243 -19 115 53 "},"T":{"ha":719,"x_min":0,"x_max":0,"o":"m 306 868 l 42 868 l 42 968 l 678 968 l 678 868 l 414 868 l 414 0 l 306 0 "},"U":{"ha":967,"x_min":0,"x_max":0,"o":"m 121 968 l 229 968 l 229 350 b 483 83 229 172 329 83 b 738 350 638 83 738 172 l 738 968 l 846 968 l 846 339 b 483 -17 846 104 692 -17 b 121 339 275 -17 121 104 "},"V":{"ha":985,"x_min":0,"x_max":0,"o":"m 49 968 l 167 968 l 493 182 l 818 968 l 936 968 l 531 0 l 454 0 "},"W":{"ha":1278,"x_min":0,"x_max":0,"o":"m 38 968 l 147 968 l 363 236 l 601 968 l 676 968 l 915 236 l 1131 968 l 1240 968 l 957 0 l 888 0 l 639 749 l 390 0 l 321 0 "},"X":{"ha":907,"x_min":0,"x_max":0,"o":"m 383 501 l 78 968 l 199 968 l 454 575 l 708 968 l 825 968 l 521 500 l 849 0 l 726 0 l 449 425 l 174 0 l 58 0 "},"Y":{"ha":864,"x_min":0,"x_max":0,"o":"m 379 397 l 39 968 l 158 968 l 435 504 l 708 968 l 825 968 l 488 397 l 488 0 l 379 0 "},"Z":{"ha":875,"x_min":0,"x_max":0,"o":"m 61 67 l 656 868 l 129 868 l 129 968 l 801 968 l 801 896 l 211 100 l 811 100 l 811 0 l 61 0 "},"À":{"ha":1000,"x_min":0,"x_max":0,"o":"m 339 1236 l 476 1236 l 550 1035 l 468 1035 m 458 968 l 542 968 l 951 0 l 835 0 l 735 239 l 265 239 l 165 0 l 49 0 m 693 339 l 500 800 l 307 339 "},"Á":{"ha":1000,"x_min":0,"x_max":0,"o":"m 519 1236 l 657 1236 l 528 1035 l 446 1035 m 458 968 l 542 968 l 951 0 l 835 0 l 735 239 l 265 239 l 165 0 l 49 0 m 693 339 l 500 800 l 307 339 "},"Â":{"ha":1000,"x_min":0,"x_max":0,"o":"m 457 1236 l 543 1236 l 718 1068 l 592 1068 l 500 1160 l 408 1068 l 282 1068 m 458 968 l 542 968 l 951 0 l 835 0 l 735 239 l 265 239 l 165 0 l 49 0 m 693 339 l 500 800 l 307 339 "},"Ã":{"ha":1000,"x_min":0,"x_max":0,"o":"m 296 1058 b 421 1186 304 1131 350 1186 b 583 1132 492 1186 532 1132 b 647 1189 618 1132 638 1149 l 715 1183 b 588 1047 706 1100 668 1047 b 424 1101 514 1047 476 1101 b 364 1053 396 1101 372 1088 l 296 1058 m 458 968 l 542 968 l 951 0 l 835 0 l 735 239 l 265 239 l 165 0 l 49 0 m 693 339 l 500 800 l 307 339 "},"Ä":{"ha":1000,"x_min":0,"x_max":0,"o":"m 643 1033 b 574 1103 607 1033 574 1063 b 643 1172 574 1143 607 1172 b 713 1103 679 1172 713 1143 b 643 1033 713 1063 679 1033 m 357 1033 b 288 1103 321 1033 288 1063 b 357 1172 288 1143 321 1172 b 426 1103 393 1172 426 1143 b 357 1033 426 1063 393 1033 m 458 968 l 542 968 l 951 0 l 835 0 l 735 239 l 265 239 l 165 0 l 49 0 m 693 339 l 500 800 l 307 339 "},"Ā":{"ha":1000,"x_min":0,"x_max":0,"o":"m 296 1164 l 704 1164 l 704 1068 l 296 1068 m 458 968 l 542 968 l 951 0 l 835 0 l 735 239 l 265 239 l 165 0 l 49 0 m 693 339 l 500 800 l 307 339 "},"Ă":{"ha":1000,"x_min":0,"x_max":0,"o":"m 500 1043 b 283 1236 392 1043 299 1118 l 379 1236 b 500 1135 400 1171 439 1135 b 621 1236 561 1135 600 1171 l 717 1236 b 500 1043 701 1118 608 1043 m 458 968 l 542 968 l 951 0 l 835 0 l 735 239 l 265 239 l 165 0 l 49 0 m 693 339 l 500 800 l 307 339 "},"Å":{"ha":974,"x_min":0,"x_max":0,"o":"m 451 924 b 351 1054 394 939 351 992 b 488 1189 351 1128 413 1189 b 622 1054 561 1189 622 1128 b 521 922 622 990 579 938 l 925 0 l 807 0 l 703 239 l 267 239 l 163 0 l 49 0 m 488 989 b 551 1054 522 989 551 1019 b 488 1118 551 1089 522 1118 b 422 1054 453 1118 422 1089 b 488 989 422 1019 453 989 m 660 339 l 485 750 l 310 339 "},"Ǻ":{"ha":974,"x_min":0,"x_max":0,"o":"m 531 1461 l 668 1461 l 539 1260 l 457 1260 m 451 924 b 351 1054 394 939 351 992 b 488 1189 351 1128 413 1189 b 622 1054 561 1189 622 1128 b 521 922 622 990 579 938 l 925 0 l 807 0 l 703 239 l 267 239 l 163 0 l 49 0 m 488 989 b 551 1054 522 989 551 1019 b 488 1118 551 1089 522 1118 b 422 1054 453 1118 422 1089 b 488 989 422 1019 453 989 m 660 339 l 485 750 l 310 339 "},"Ą":{"ha":1000,"x_min":0,"x_max":0,"o":"m 458 968 l 542 968 l 951 0 b 838 -132 901 -18 838 -76 b 907 -194 838 -175 871 -194 b 988 -174 936 -194 963 -187 l 969 -256 b 890 -275 944 -268 918 -275 b 750 -151 819 -275 750 -229 b 839 -11 750 -90 792 -43 l 838 -8 l 733 239 l 265 239 l 165 0 l 49 0 m 692 339 l 500 800 l 307 339 "},"Æ":{"ha":1236,"x_min":0,"x_max":0,"o":"m 719 968 l 1150 968 l 1150 868 l 800 868 l 800 561 l 1124 561 l 1124 461 l 800 461 l 800 100 l 1160 100 l 1160 0 l 692 0 l 692 239 l 297 239 l 114 0 l -22 0 m 692 339 l 692 763 l 374 339 "},"Ǽ":{"ha":1236,"x_min":0,"x_max":0,"o":"m 736 1236 l 874 1236 l 744 1035 l 663 1035 m 719 968 l 1150 968 l 1150 868 l 800 868 l 800 561 l 1124 561 l 1124 461 l 800 461 l 800 100 l 1160 100 l 1160 0 l 692 0 l 692 239 l 297 239 l 114 0 l -22 0 m 692 339 l 692 763 l 374 339 "},"Ć":{"ha":988,"x_min":0,"x_max":0,"o":"m 596 1236 l 733 1236 l 604 1035 l 522 1035 m 65 483 b 569 986 65 774 290 986 b 939 822 718 986 847 925 l 865 756 b 569 886 794 838 692 886 b 174 483 342 886 174 714 b 569 81 174 253 342 81 b 869 217 692 81 799 131 l 943 150 b 569 -19 851 43 718 -19 b 65 483 290 -19 65 193 "},"Ĉ":{"ha":988,"x_min":0,"x_max":0,"o":"m 538 1236 l 624 1236 l 799 1068 l 672 1068 l 581 1160 l 489 1068 l 363 1068 m 65 483 b 569 986 65 774 290 986 b 939 822 718 986 847 925 l 865 756 b 569 886 794 838 692 886 b 174 483 342 886 174 714 b 569 81 174 253 342 81 b 869 217 692 81 799 131 l 943 150 b 569 -19 851 43 718 -19 b 65 483 290 -19 65 193 "},"Č":{"ha":988,"x_min":0,"x_max":0,"o":"m 353 1236 l 479 1236 l 571 1144 l 663 1236 l 789 1236 l 614 1068 l 528 1068 m 65 483 b 569 986 65 774 290 986 b 939 822 718 986 847 925 l 865 756 b 569 886 794 838 692 886 b 174 483 342 886 174 714 b 569 81 174 253 342 81 b 869 217 692 81 799 131 l 943 150 b 569 -19 851 43 718 -19 b 65 483 290 -19 65 193 "},"Ċ":{"ha":988,"x_min":0,"x_max":0,"o":"m 563 1060 b 493 1129 526 1060 493 1089 b 563 1199 493 1169 526 1199 b 632 1129 599 1199 632 1169 b 563 1060 632 1089 599 1060 m 65 483 b 569 986 65 774 290 986 b 939 822 718 986 847 925 l 865 756 b 569 886 794 838 692 886 b 174 483 342 886 174 714 b 569 81 174 253 342 81 b 869 217 692 81 799 131 l 943 150 b 569 -19 851 43 718 -19 b 65 483 290 -19 65 193 "},"Ç":{"ha":988,"x_min":0,"x_max":0,"o":"m 65 483 b 569 986 65 774 290 986 b 939 822 718 986 847 925 l 865 756 b 569 886 794 838 692 886 b 174 483 342 886 174 714 b 569 81 174 253 342 81 b 869 217 692 81 799 131 l 943 150 b 569 -19 851 43 718 -19 b 533 -18 557 -19 546 -19 l 513 -64 b 604 -162 563 -64 604 -101 b 461 -275 604 -243 547 -275 b 358 -243 421 -275 378 -258 l 385 -189 b 460 -212 410 -204 428 -212 b 521 -162 494 -212 521 -193 b 419 -106 521 -115 483 -106 l 460 -8 b 65 483 233 39 65 232 "},"Ď":{"ha":1008,"x_min":0,"x_max":0,"o":"m 275 1236 l 401 1236 l 493 1144 l 585 1236 l 711 1236 l 536 1068 l 450 1068 m 128 968 l 439 968 b 939 483 753 968 939 769 b 440 0 939 197 754 0 l 128 0 m 432 100 b 831 483 701 100 831 258 b 431 868 831 710 701 868 l 236 868 l 236 100 "},"Đ":{"ha":1003,"x_min":0,"x_max":0,"o":"m 128 447 l 38 447 l 38 547 l 128 547 l 128 968 l 439 968 b 939 483 753 968 939 769 b 440 0 939 197 754 0 l 128 0 m 432 100 b 831 483 701 100 831 258 b 431 868 831 710 701 868 l 236 868 l 236 547 l 438 547 l 438 447 l 236 447 l 236 100 "},"È":{"ha":763,"x_min":0,"x_max":0,"o":"m 256 1236 l 393 1236 l 467 1035 l 385 1035 m 128 968 l 675 968 l 675 868 l 236 868 l 236 561 l 649 561 l 649 461 l 236 461 l 236 100 l 685 100 l 685 0 l 128 0 "},"É":{"ha":763,"x_min":0,"x_max":0,"o":"m 419 1236 l 557 1236 l 428 1035 l 346 1035 m 128 968 l 675 968 l 675 868 l 236 868 l 236 561 l 649 561 l 649 461 l 236 461 l 236 100 l 685 100 l 685 0 l 128 0 "},"Ê":{"ha":763,"x_min":0,"x_max":0,"o":"m 360 1236 l 446 1236 l 621 1068 l 494 1068 l 403 1160 l 311 1068 l 185 1068 m 128 968 l 675 968 l 675 868 l 236 868 l 236 561 l 649 561 l 649 461 l 236 461 l 236 100 l 685 100 l 685 0 l 128 0 "},"Ě":{"ha":763,"x_min":0,"x_max":0,"o":"m 194 1236 l 321 1236 l 413 1144 l 504 1236 l 631 1236 l 456 1068 l 369 1068 m 128 968 l 675 968 l 675 868 l 236 868 l 236 561 l 649 561 l 649 461 l 236 461 l 236 100 l 685 100 l 685 0 l 128 0 "},"Ë":{"ha":763,"x_min":0,"x_max":0,"o":"m 546 1060 b 476 1129 510 1060 476 1089 b 546 1199 476 1169 510 1199 b 615 1129 582 1199 615 1169 b 546 1060 615 1089 582 1060 m 260 1060 b 190 1129 224 1060 190 1089 b 260 1199 190 1169 224 1199 b 329 1129 296 1199 329 1169 b 260 1060 329 1089 296 1060 m 128 968 l 675 968 l 675 868 l 236 868 l 236 561 l 649 561 l 649 461 l 236 461 l 236 100 l 685 100 l 685 0 l 128 0 "},"Ē":{"ha":763,"x_min":0,"x_max":0,"o":"m 194 1164 l 603 1164 l 603 1068 l 194 1068 m 128 968 l 675 968 l 675 868 l 236 868 l 236 561 l 649 561 l 649 461 l 236 461 l 236 100 l 685 100 l 685 0 l 128 0 "},"Ĕ":{"ha":763,"x_min":0,"x_max":0,"o":"m 406 1043 b 189 1236 297 1043 204 1118 l 285 1236 b 406 1135 306 1171 344 1135 b 526 1236 467 1135 506 1171 l 622 1236 b 406 1043 607 1118 514 1043 m 128 968 l 675 968 l 675 868 l 236 868 l 236 561 l 649 561 l 649 461 l 236 461 l 236 100 l 685 100 l 685 0 l 128 0 "},"Ė":{"ha":763,"x_min":0,"x_max":0,"o":"m 407 1060 b 338 1129 371 1060 338 1089 b 407 1199 338 1169 371 1199 b 476 1129 443 1199 476 1169 b 407 1060 476 1089 443 1060 m 128 968 l 675 968 l 675 868 l 236 868 l 236 561 l 649 561 l 649 461 l 236 461 l 236 100 l 685 100 l 685 0 l 128 0 "},"Ę":{"ha":763,"x_min":0,"x_max":0,"o":"m 128 968 l 675 968 l 675 868 l 236 868 l 236 561 l 649 561 l 649 461 l 236 461 l 236 100 l 685 100 l 685 0 b 579 -132 643 -26 579 -76 b 649 -194 579 -175 613 -194 b 729 -174 678 -194 704 -187 l 711 -256 b 632 -275 686 -268 660 -275 b 492 -151 561 -275 492 -229 b 596 0 492 -83 544 -32 l 128 0 "},"Ĝ":{"ha":1028,"x_min":0,"x_max":0,"o":"m 525 1236 l 611 1236 l 786 1068 l 660 1068 l 568 1160 l 476 1068 l 350 1068 m 65 483 b 569 986 65 774 290 986 b 904 860 700 986 815 942 l 836 785 b 569 886 767 849 675 886 b 174 483 342 886 174 713 b 569 81 174 253 342 81 b 835 178 674 81 765 117 l 835 428 l 539 428 l 539 528 l 943 528 l 943 140 b 569 -19 850 40 718 -19 b 65 483 290 -19 65 193 "},"Ğ":{"ha":1028,"x_min":0,"x_max":0,"o":"m 565 1043 b 349 1236 457 1043 364 1118 l 444 1236 b 565 1135 465 1171 504 1135 b 686 1236 626 1135 665 1171 l 782 1236 b 565 1043 767 1118 674 1043 m 65 483 b 569 986 65 774 290 986 b 904 860 700 986 815 942 l 836 785 b 569 886 767 849 675 886 b 174 483 342 886 174 713 b 569 81 174 253 342 81 b 835 178 674 81 765 117 l 835 428 l 539 428 l 539 528 l 943 528 l 943 140 b 569 -19 850 40 718 -19 b 65 483 290 -19 65 193 "},"Ġ":{"ha":1028,"x_min":0,"x_max":0,"o":"m 571 1060 b 501 1129 535 1060 501 1089 b 571 1199 501 1169 535 1199 b 640 1129 607 1199 640 1169 b 571 1060 640 1089 607 1060 m 65 483 b 569 986 65 774 290 986 b 904 860 700 986 815 942 l 836 785 b 569 886 767 849 675 886 b 174 483 342 886 174 713 b 569 81 174 253 342 81 b 835 178 674 81 765 117 l 835 428 l 539 428 l 539 528 l 943 528 l 943 140 b 569 -19 850 40 718 -19 b 65 483 290 -19 65 193 "},"Ģ":{"ha":1028,"x_min":0,"x_max":0,"o":"m 65 483 b 569 986 65 774 290 986 b 904 860 700 986 815 942 l 836 785 b 569 886 767 849 675 886 b 174 483 342 886 174 713 b 569 81 174 253 342 81 b 835 178 674 81 765 117 l 835 428 l 539 428 l 539 528 l 943 528 l 943 140 b 569 -19 850 40 718 -19 b 65 483 290 -19 65 193 m 503 -67 l 640 -67 l 511 -268 l 429 -268 "},"Ĥ":{"ha":1010,"x_min":0,"x_max":0,"o":"m 461 1236 l 547 1236 l 722 1068 l 596 1068 l 504 1160 l 413 1068 l 286 1068 m 128 968 l 236 968 l 236 564 l 774 564 l 774 968 l 882 968 l 882 0 l 774 0 l 774 464 l 236 464 l 236 0 l 128 0 "},"Ħ":{"ha":1010,"x_min":0,"x_max":0,"o":"m 128 700 l 46 700 l 46 796 l 128 796 l 128 968 l 236 968 l 236 796 l 774 796 l 774 968 l 882 968 l 882 796 l 964 796 l 964 700 l 882 700 l 882 0 l 774 0 l 774 464 l 236 464 l 236 0 l 128 0 m 774 564 l 774 700 l 236 700 l 236 564 "},"Ì":{"ha":375,"x_min":0,"x_max":0,"o":"m 18 1236 l 156 1236 l 229 1035 l 147 1035 m 133 968 l 242 968 l 242 0 l 133 0 "},"Í":{"ha":375,"x_min":0,"x_max":0,"o":"m 218 1236 l 356 1236 l 226 1035 l 144 1035 m 133 968 l 242 968 l 242 0 l 133 0 "},"Î":{"ha":375,"x_min":0,"x_max":0,"o":"m 144 1236 l 231 1236 l 406 1068 l 279 1068 l 188 1160 l 96 1068 l -31 1068 m 133 968 l 242 968 l 242 0 l 133 0 "},"Ĩ":{"ha":375,"x_min":0,"x_max":0,"o":"m -22 1058 b 103 1186 -14 1131 32 1186 b 265 1132 174 1186 214 1132 b 329 1189 300 1132 319 1149 l 397 1183 b 269 1047 388 1100 350 1047 b 106 1101 196 1047 158 1101 b 46 1053 78 1101 54 1088 m 133 968 l 242 968 l 242 0 l 133 0 "},"Ï":{"ha":375,"x_min":0,"x_max":0,"o":"m 317 1060 b 247 1129 281 1060 247 1089 b 317 1199 247 1169 281 1199 b 386 1129 353 1199 386 1169 b 317 1060 386 1089 353 1060 m 58 1060 b -11 1129 22 1060 -11 1089 b 58 1199 -11 1169 22 1199 b 128 1129 94 1199 128 1169 b 58 1060 128 1089 94 1060 m 133 968 l 242 968 l 242 0 l 133 0 "},"Ī":{"ha":375,"x_min":0,"x_max":0,"o":"m -3 1164 l 378 1164 l 378 1068 l -3 1068 m 133 968 l 242 968 l 242 0 l 133 0 "},"Ĭ":{"ha":375,"x_min":0,"x_max":0,"o":"m 188 1043 b -29 1236 79 1043 -14 1118 l 67 1236 b 188 1135 88 1171 126 1135 b 308 1236 249 1135 288 1171 l 404 1236 b 188 1043 389 1118 296 1043 m 133 968 l 242 968 l 242 0 l 133 0 "},"İ":{"ha":375,"x_min":0,"x_max":0,"o":"m 188 1060 b 118 1129 151 1060 118 1089 b 188 1199 118 1169 151 1199 b 257 1129 224 1199 257 1169 b 188 1060 257 1089 224 1060 m 133 968 l 242 968 l 242 0 l 133 0 "},"Į":{"ha":375,"x_min":0,"x_max":0,"o":"m 133 968 l 242 968 l 242 0 b 131 -132 199 -17 131 -76 b 200 -194 131 -175 164 -194 b 281 -174 229 -194 256 -187 l 263 -256 b 183 -275 238 -268 211 -275 b 43 -151 113 -275 43 -229 b 133 -10 43 -89 86 -42 l 133 -8 "},"Ĳ":{"ha":660,"x_min":0,"x_max":0,"o":"m 133 90 b 285 81 174 83 224 81 b 431 283 431 81 431 190 l 431 968 l 539 968 l 539 297 b 296 -19 539 135 511 -19 b 133 -10 233 -19 181 -17 m 133 968 l 242 968 l 242 196 l 133 196 "},"Ĵ":{"ha":431,"x_min":0,"x_max":0,"o":"m 213 1236 l 299 1236 l 474 1068 l 347 1068 l 256 1160 l 164 1068 l 38 1068 m 19 96 b 93 82 40 88 69 82 b 201 263 188 82 201 165 l 201 968 l 310 968 l 310 267 b 100 -19 310 125 294 -19 b 19 -7 71 -19 46 -15 "},"Ķ":{"ha":886,"x_min":0,"x_max":0,"o":"m 128 968 l 236 968 l 236 454 l 701 968 l 835 968 l 449 546 l 846 0 l 715 0 l 376 467 l 236 314 l 236 0 l 128 0 m 379 -67 l 517 -67 l 388 -268 l 306 -268 "},"Ĺ":{"ha":689,"x_min":0,"x_max":0,"o":"m 226 1236 l 364 1236 l 235 1035 l 153 1035 m 128 968 l 236 968 l 236 100 l 635 100 l 635 0 l 128 0 "},"Ľ":{"ha":689,"x_min":0,"x_max":0,"o":"m 128 968 l 236 968 l 236 100 l 635 100 l 635 0 l 128 0 m 424 968 l 561 968 l 432 767 l 350 767 "},"Ļ":{"ha":689,"x_min":0,"x_max":0,"o":"m 128 968 l 236 968 l 236 100 l 635 100 l 635 0 l 128 0 m 465 -67 l 336 -268 l 254 -268 l 328 -67 "},"Ŀ":{"ha":689,"x_min":0,"x_max":0,"o":"m 128 968 l 236 968 l 236 100 l 635 100 l 635 0 l 128 0 m 446 446 b 376 515 410 446 376 475 b 446 585 376 556 410 585 b 515 515 482 585 515 556 b 446 446 515 475 482 446 "},"Ł":{"ha":688,"x_min":0,"x_max":0,"o":"m 128 392 l 35 340 l 35 446 l 128 497 l 128 968 l 236 968 l 236 557 l 431 667 l 431 561 l 236 453 l 236 100 l 635 100 l 635 0 l 128 0 "},"Ń":{"ha":1043,"x_min":0,"x_max":0,"o":"m 536 1236 l 674 1236 l 544 1035 l 463 1035 m 128 968 l 222 968 l 807 193 l 807 968 l 915 968 l 915 0 l 828 0 l 236 783 l 236 0 l 128 0 "},"Ň":{"ha":1043,"x_min":0,"x_max":0,"o":"m 303 1236 l 429 1236 l 521 1144 l 613 1236 l 739 1236 l 564 1068 l 478 1068 m 128 968 l 222 968 l 807 193 l 807 968 l 915 968 l 915 0 l 828 0 l 236 783 l 236 0 l 128 0 "},"Ñ":{"ha":1043,"x_min":0,"x_max":0,"o":"m 311 1058 b 436 1186 319 1131 365 1186 b 599 1132 507 1186 547 1132 b 663 1189 633 1132 653 1149 l 731 1183 b 603 1047 721 1100 683 1047 b 439 1101 529 1047 492 1101 b 379 1053 411 1101 388 1088 l 311 1058 m 128 968 l 222 968 l 807 193 l 807 968 l 915 968 l 915 0 l 828 0 l 236 783 l 236 0 l 128 0 "},"Ņ":{"ha":1043,"x_min":0,"x_max":0,"o":"m 479 -67 l 617 -67 l 488 -268 l 406 -268 m 128 968 l 222 968 l 807 193 l 807 968 l 915 968 l 915 0 l 828 0 l 236 783 l 236 0 l 128 0 "},"Ò":{"ha":1139,"x_min":0,"x_max":0,"o":"m 406 1236 l 543 1236 l 617 1035 l 535 1035 m 65 483 b 569 986 65 774 290 986 b 1074 483 849 986 1074 774 b 569 -19 1074 193 849 -19 b 65 483 290 -19 65 193 m 172 483 b 569 81 172 253 342 81 b 965 483 797 81 965 253 b 569 886 965 714 797 886 b 172 483 342 886 172 714 "},"Ó":{"ha":1139,"x_min":0,"x_max":0,"o":"m 582 1236 l 719 1236 l 590 1035 l 508 1035 m 65 483 b 569 986 65 774 290 986 b 1074 483 849 986 1074 774 b 569 -19 1074 193 849 -19 b 65 483 290 -19 65 193 m 172 483 b 569 81 172 253 342 81 b 965 483 797 81 965 253 b 569 886 965 714 797 886 b 172 483 342 886 172 714 "},"Ô":{"ha":1139,"x_min":0,"x_max":0,"o":"m 526 1236 l 613 1236 l 788 1068 l 661 1068 l 569 1160 l 478 1068 l 351 1068 m 65 483 b 569 986 65 774 290 986 b 1074 483 849 986 1074 774 b 569 -19 1074 193 849 -19 b 65 483 290 -19 65 193 m 172 483 b 569 81 172 253 342 81 b 965 483 797 81 965 253 b 569 886 965 714 797 886 b 172 483 342 886 172 714 "},"Õ":{"ha":1139,"x_min":0,"x_max":0,"o":"m 360 1058 b 485 1186 368 1131 414 1186 b 647 1132 556 1186 596 1132 b 711 1189 682 1132 701 1149 l 779 1183 b 651 1047 769 1100 732 1047 b 488 1101 578 1047 540 1101 b 428 1053 460 1101 436 1088 l 360 1058 m 65 483 b 569 986 65 774 290 986 b 1074 483 849 986 1074 774 b 569 -19 1074 193 849 -19 b 65 483 290 -19 65 193 m 172 483 b 569 81 172 253 342 81 b 965 483 797 81 965 253 b 569 886 965 714 797 886 b 172 483 342 886 172 714 "},"Ö":{"ha":1139,"x_min":0,"x_max":0,"o":"m 713 1033 b 643 1103 676 1033 643 1063 b 713 1172 643 1143 676 1172 b 782 1103 749 1172 782 1143 b 713 1033 782 1063 749 1033 m 426 1033 b 357 1103 390 1033 357 1063 b 426 1172 357 1143 390 1172 b 496 1103 463 1172 496 1143 b 426 1033 496 1063 463 1033 m 65 483 b 569 986 65 774 290 986 b 1074 483 849 986 1074 774 b 569 -19 1074 193 849 -19 b 65 483 290 -19 65 193 m 172 483 b 569 81 172 253 342 81 b 965 483 797 81 965 253 b 569 886 965 714 797 886 b 172 483 342 886 172 714 "},"Ō":{"ha":1139,"x_min":0,"x_max":0,"o":"m 365 1165 l 774 1165 l 774 1069 l 365 1069 m 65 483 b 569 986 65 774 290 986 b 1074 483 849 986 1074 774 b 569 -19 1074 193 849 -19 b 65 483 290 -19 65 193 m 172 483 b 569 81 172 253 342 81 b 965 483 797 81 965 253 b 569 886 965 714 797 886 b 172 483 342 886 172 714 "},"Ŏ":{"ha":1139,"x_min":0,"x_max":0,"o":"m 569 1043 b 353 1236 461 1043 368 1118 l 449 1236 b 569 1135 469 1171 508 1135 b 690 1236 631 1135 669 1171 l 786 1236 b 569 1043 771 1118 678 1043 m 65 483 b 569 986 65 774 290 986 b 1074 483 849 986 1074 774 b 569 -19 1074 193 849 -19 b 65 483 290 -19 65 193 m 172 483 b 569 81 172 253 342 81 b 965 483 797 81 965 253 b 569 886 965 714 797 886 b 172 483 342 886 172 714 "},"Ő":{"ha":1139,"x_min":0,"x_max":0,"o":"m 725 1236 l 857 1236 l 714 1035 l 638 1035 m 511 1236 l 643 1236 l 500 1035 l 424 1035 m 65 483 b 569 986 65 774 290 986 b 1074 483 849 986 1074 774 b 569 -19 1074 193 849 -19 b 65 483 290 -19 65 193 m 172 483 b 569 81 172 253 342 81 b 965 483 797 81 965 253 b 569 886 965 714 797 886 b 172 483 342 886 172 714 "},"Ø":{"ha":1139,"x_min":0,"x_max":0,"o":"m 235 103 b 65 483 131 193 65 326 b 569 986 65 774 290 986 b 839 911 669 986 761 958 l 919 1019 l 999 960 l 918 851 b 1074 483 1014 761 1074 633 b 569 -19 1074 193 849 -19 b 315 46 476 -19 390 4 l 238 -58 l 158 0 m 779 829 b 569 886 719 865 647 886 b 172 483 342 886 172 714 b 296 185 172 363 218 257 m 376 128 b 569 81 433 97 499 81 b 965 483 797 81 965 253 b 856 768 965 597 925 696 l 376 128 "},"Ǿ":{"ha":1139,"x_min":0,"x_max":0,"o":"m 608 1236 l 746 1236 l 617 1035 l 535 1035 m 235 103 b 65 483 131 193 65 326 b 569 986 65 774 290 986 b 839 911 669 986 761 958 l 919 1019 l 999 960 l 918 851 b 1074 483 1014 761 1074 633 b 569 -19 1074 193 849 -19 b 315 46 476 -19 390 4 l 238 -58 l 158 0 m 779 829 b 569 886 719 865 647 886 b 172 483 342 886 172 714 b 296 185 172 363 218 257 m 376 128 b 569 81 433 97 499 81 b 965 483 797 81 965 253 b 856 768 965 597 925 696 l 376 128 "},"Œ":{"ha":1506,"x_min":0,"x_max":0,"o":"m 65 483 b 569 986 65 774 290 986 b 960 782 744 986 875 913 l 960 968 l 1418 968 l 1418 868 l 1068 868 l 1068 561 l 1392 561 l 1392 461 l 1068 461 l 1068 100 l 1428 100 l 1428 0 l 960 0 l 960 190 b 569 -19 878 56 747 -19 b 65 483 290 -19 65 193 m 172 483 b 569 81 172 253 342 81 b 965 483 797 81 965 253 b 569 886 965 714 797 886 b 172 483 342 886 172 714 "},"Ŕ":{"ha":842,"x_min":0,"x_max":0,"o":"m 418 1236 l 556 1236 l 426 1035 l 344 1035 m 128 968 l 458 968 b 749 679 618 968 749 846 b 564 404 749 550 672 446 l 797 0 l 674 0 l 456 383 l 454 383 l 236 383 l 236 0 l 128 0 m 447 483 b 640 679 558 483 640 567 b 454 868 640 786 561 868 l 236 868 l 236 483 "},"Ř":{"ha":842,"x_min":0,"x_max":0,"o":"m 188 1236 l 314 1236 l 406 1144 l 497 1236 l 624 1236 l 449 1068 l 363 1068 m 128 968 l 458 968 b 749 679 618 968 749 846 b 564 404 749 550 672 446 l 797 0 l 674 0 l 456 383 l 454 383 l 236 383 l 236 0 l 128 0 m 447 483 b 640 679 558 483 640 567 b 454 868 640 786 561 868 l 236 868 l 236 483 "},"Ŗ":{"ha":842,"x_min":0,"x_max":0,"o":"m 128 968 l 458 968 b 749 679 618 968 749 846 b 564 404 749 550 672 446 l 797 0 l 674 0 l 456 383 l 454 383 l 236 383 l 236 0 l 128 0 m 447 483 b 640 679 558 483 640 567 b 454 868 640 786 561 868 l 236 868 l 236 483 m 526 -67 l 397 -268 l 315 -268 l 389 -67 "},"Ś":{"ha":764,"x_min":0,"x_max":0,"o":"m 406 1236 l 543 1236 l 414 1035 l 332 1035 m 150 256 b 393 81 193 151 269 81 b 588 251 569 81 588 201 b 371 467 588 367 507 407 b 117 746 224 532 117 589 b 382 986 117 885 229 986 b 643 832 506 986 589 932 l 550 785 b 381 886 514 853 464 886 b 225 749 296 886 225 829 b 422 558 225 644 306 611 b 696 253 600 479 696 415 b 392 -19 696 99 590 -19 b 57 213 243 -19 115 53 "},"Ŝ":{"ha":764,"x_min":0,"x_max":0,"o":"m 358 1236 l 444 1236 l 619 1068 l 493 1068 l 401 1160 l 310 1068 l 183 1068 m 150 256 b 393 81 193 151 269 81 b 588 251 569 81 588 201 b 371 467 588 367 507 407 b 117 746 224 532 117 589 b 382 986 117 885 229 986 b 643 832 506 986 589 932 l 550 785 b 381 886 514 853 464 886 b 225 749 296 886 225 829 b 422 558 225 644 306 611 b 696 253 600 479 696 415 b 392 -19 696 99 590 -19 b 57 213 243 -19 115 53 "},"Š":{"ha":764,"x_min":0,"x_max":0,"o":"m 186 1236 l 313 1236 l 404 1144 l 496 1236 l 622 1236 l 447 1068 l 361 1068 m 150 256 b 393 81 193 151 269 81 b 588 251 569 81 588 201 b 371 467 588 367 507 407 b 117 746 224 532 117 589 b 382 986 117 885 229 986 b 643 832 506 986 589 932 l 550 785 b 381 886 514 853 464 886 b 225 749 296 886 225 829 b 422 558 225 644 306 611 b 696 253 600 479 696 415 b 392 -19 696 99 590 -19 b 57 213 243 -19 115 53 "},"Ș":{"ha":764,"x_min":0,"x_max":0,"o":"m 150 256 b 393 81 193 151 269 81 b 588 251 569 81 588 201 b 371 467 588 367 507 407 b 117 746 224 532 117 589 b 382 986 117 885 229 986 b 643 832 506 986 589 932 l 550 785 b 381 886 514 853 464 886 b 225 749 296 886 225 829 b 422 558 225 644 306 611 b 696 253 600 479 696 415 b 392 -19 696 99 590 -19 b 57 213 243 -19 115 53 m 311 -67 l 449 -67 l 319 -268 l 238 -268 "},"Ş":{"ha":764,"x_min":0,"x_max":0,"o":"m 150 256 b 393 81 193 151 269 81 b 588 251 569 81 588 201 b 371 467 588 367 507 407 b 117 746 224 532 117 589 b 382 986 117 885 229 986 b 643 832 506 986 589 932 l 550 785 b 381 886 514 853 464 886 b 225 749 296 886 225 829 b 422 558 225 644 306 611 b 696 253 600 479 696 415 b 399 -19 696 100 593 -17 l 378 -67 b 469 -165 428 -67 469 -104 b 326 -278 469 -246 413 -278 b 224 -246 286 -278 243 -261 l 250 -192 b 325 -215 275 -207 293 -215 b 386 -165 360 -215 386 -196 b 285 -108 386 -118 349 -108 l 324 -14 b 57 213 206 6 106 78 "},"Ť":{"ha":719,"x_min":0,"x_max":0,"o":"m 140 1236 l 267 1236 l 358 1144 l 450 1236 l 576 1236 l 401 1068 l 315 1068 m 306 868 l 42 868 l 42 968 l 678 968 l 678 868 l 414 868 l 414 0 l 306 0 "},"Ţ":{"ha":719,"x_min":0,"x_max":0,"o":"m 306 868 l 42 868 l 42 968 l 678 968 l 678 868 l 414 868 l 414 0 l 306 0 m 431 -67 l 301 -268 l 219 -268 l 293 -67 "},"Ŧ":{"ha":719,"x_min":0,"x_max":0,"o":"m 306 501 l 156 501 l 156 597 l 306 597 l 306 868 l 42 868 l 42 968 l 678 968 l 678 868 l 414 868 l 414 597 l 564 597 l 564 501 l 414 501 l 414 0 l 306 0 "},"Ù":{"ha":967,"x_min":0,"x_max":0,"o":"m 322 1236 l 460 1236 l 533 1035 l 451 1035 m 121 968 l 229 968 l 229 350 b 483 83 229 172 329 83 b 738 350 638 83 738 172 l 738 968 l 846 968 l 846 339 b 483 -17 846 104 692 -17 b 121 339 275 -17 121 104 "},"Ú":{"ha":967,"x_min":0,"x_max":0,"o":"m 511 1236 l 649 1236 l 519 1035 l 438 1035 m 121 968 l 229 968 l 229 350 b 483 83 229 172 329 83 b 738 350 638 83 738 172 l 738 968 l 846 968 l 846 339 b 483 -17 846 104 692 -17 b 121 339 275 -17 121 104 "},"Û":{"ha":967,"x_min":0,"x_max":0,"o":"m 440 1236 l 526 1236 l 701 1068 l 575 1068 l 483 1160 l 392 1068 l 265 1068 m 121 968 l 229 968 l 229 350 b 483 83 229 172 329 83 b 738 350 638 83 738 172 l 738 968 l 846 968 l 846 339 b 483 -17 846 104 692 -17 b 121 339 275 -17 121 104 "},"Ũ":{"ha":967,"x_min":0,"x_max":0,"o":"m 276 1058 b 401 1186 285 1131 331 1186 b 564 1132 472 1186 513 1132 b 628 1189 599 1132 618 1149 l 696 1183 b 568 1047 686 1100 649 1047 b 404 1101 494 1047 457 1101 b 344 1053 376 1101 353 1088 l 276 1058 m 121 968 l 229 968 l 229 350 b 483 83 229 172 329 83 b 738 350 638 83 738 172 l 738 968 l 846 968 l 846 339 b 483 -17 846 104 692 -17 b 121 339 275 -17 121 104 "},"Ü":{"ha":967,"x_min":0,"x_max":0,"o":"m 626 1033 b 557 1103 590 1033 557 1063 b 626 1172 557 1143 590 1172 b 696 1103 663 1172 696 1143 b 626 1033 696 1063 663 1033 m 340 1033 b 271 1103 304 1033 271 1063 b 340 1172 271 1143 304 1172 b 410 1103 376 1172 410 1143 b 340 1033 410 1063 376 1033 m 121 968 l 229 968 l 229 350 b 483 83 229 172 329 83 b 738 350 638 83 738 172 l 738 968 l 846 968 l 846 339 b 483 -17 846 104 692 -17 b 121 339 275 -17 121 104 "},"Ū":{"ha":967,"x_min":0,"x_max":0,"o":"m 279 1165 l 688 1165 l 688 1069 l 279 1069 m 121 968 l 229 968 l 229 350 b 483 83 229 172 329 83 b 738 350 638 83 738 172 l 738 968 l 846 968 l 846 339 b 483 -17 846 104 692 -17 b 121 339 275 -17 121 104 "},"Ŭ":{"ha":967,"x_min":0,"x_max":0,"o":"m 483 1043 b 267 1236 375 1043 282 1118 l 363 1236 b 483 1135 383 1171 422 1135 b 604 1236 544 1135 583 1171 l 700 1236 b 483 1043 685 1118 592 1043 m 121 968 l 229 968 l 229 350 b 483 83 229 172 329 83 b 738 350 638 83 738 172 l 738 968 l 846 968 l 846 339 b 483 -17 846 104 692 -17 b 121 339 275 -17 121 104 "},"Ů":{"ha":967,"x_min":0,"x_max":0,"o":"m 485 986 b 349 1122 410 986 349 1047 b 485 1257 349 1196 410 1257 b 619 1122 558 1257 619 1196 b 485 986 619 1047 560 986 m 485 1057 b 549 1122 519 1057 549 1088 b 485 1186 549 1157 519 1186 b 419 1122 450 1186 419 1157 b 485 1057 419 1088 450 1057 m 121 968 l 229 968 l 229 350 b 483 83 229 172 329 83 b 738 350 638 83 738 172 l 738 968 l 846 968 l 846 339 b 483 -17 846 104 692 -17 b 121 339 275 -17 121 104 "},"Ű":{"ha":967,"x_min":0,"x_max":0,"o":"m 635 1236 l 767 1236 l 624 1035 l 547 1035 m 421 1236 l 553 1236 l 410 1035 l 333 1035 m 121 968 l 229 968 l 229 350 b 483 83 229 172 329 83 b 738 350 638 83 738 172 l 738 968 l 846 968 l 846 339 b 483 -17 846 104 692 -17 b 121 339 275 -17 121 104 "},"Ų":{"ha":967,"x_min":0,"x_max":0,"o":"m 121 968 l 229 968 l 229 350 b 483 83 229 172 329 83 b 738 350 638 83 738 172 l 738 968 l 846 968 l 846 342 b 713 51 846 203 796 111 b 531 -132 681 28 531 -42 b 600 -194 531 -175 564 -194 b 681 -174 629 -194 656 -187 l 663 -256 b 583 -275 638 -268 611 -275 b 443 -151 513 -275 443 -229 b 528 -14 443 -90 483 -46 b 478 -17 511 -15 494 -17 b 121 339 274 -17 121 104 "},"Ẁ":{"ha":1278,"x_min":0,"x_max":0,"o":"m 479 1236 l 617 1236 l 690 1035 l 608 1035 m 38 968 l 147 968 l 363 236 l 601 968 l 676 968 l 915 236 l 1131 968 l 1240 968 l 957 0 l 888 0 l 639 749 l 390 0 l 321 0 "},"Ẃ":{"ha":1278,"x_min":0,"x_max":0,"o":"m 667 1236 l 804 1236 l 675 1035 l 593 1035 m 38 968 l 147 968 l 363 236 l 601 968 l 676 968 l 915 236 l 1131 968 l 1240 968 l 957 0 l 888 0 l 639 749 l 390 0 l 321 0 "},"Ŵ":{"ha":1278,"x_min":0,"x_max":0,"o":"m 596 1236 l 682 1236 l 857 1068 l 731 1068 l 639 1160 l 547 1068 l 421 1068 m 38 968 l 147 968 l 363 236 l 601 968 l 676 968 l 915 236 l 1131 968 l 1240 968 l 957 0 l 888 0 l 639 749 l 390 0 l 321 0 "},"Ẅ":{"ha":1278,"x_min":0,"x_max":0,"o":"m 782 1033 b 713 1103 746 1033 713 1063 b 782 1172 713 1143 746 1172 b 851 1103 818 1172 851 1143 b 782 1033 851 1063 818 1033 m 496 1033 b 426 1103 460 1033 426 1063 b 496 1172 426 1143 460 1172 b 565 1103 532 1172 565 1143 b 496 1033 565 1063 532 1033 m 38 968 l 147 968 l 363 236 l 601 968 l 676 968 l 915 236 l 1131 968 l 1240 968 l 957 0 l 888 0 l 639 749 l 390 0 l 321 0 "},"Ỳ":{"ha":864,"x_min":0,"x_max":0,"o":"m 288 1236 l 425 1236 l 499 1035 l 417 1035 m 379 397 l 39 968 l 158 968 l 435 504 l 708 968 l 825 968 l 488 397 l 488 0 l 379 0 "},"Ý":{"ha":864,"x_min":0,"x_max":0,"o":"m 461 1236 l 599 1236 l 469 1035 l 388 1035 m 379 397 l 39 968 l 158 968 l 435 504 l 708 968 l 825 968 l 488 397 l 488 0 l 379 0 "},"Ŷ":{"ha":864,"x_min":0,"x_max":0,"o":"m 393 1236 l 479 1236 l 654 1068 l 528 1068 l 436 1160 l 344 1068 l 218 1068 m 379 397 l 39 968 l 158 968 l 435 504 l 708 968 l 825 968 l 488 397 l 488 0 l 379 0 "},"Ÿ":{"ha":864,"x_min":0,"x_max":0,"o":"m 575 1032 b 506 1101 539 1032 506 1061 b 575 1171 506 1142 539 1171 b 644 1101 611 1171 644 1142 b 575 1032 644 1061 611 1032 m 289 1032 b 219 1101 253 1032 219 1061 b 289 1171 219 1142 253 1171 b 358 1101 325 1171 358 1142 b 289 1032 358 1061 325 1032 m 379 397 l 39 968 l 158 968 l 435 504 l 708 968 l 825 968 l 488 397 l 488 0 l 379 0 "},"Ź":{"ha":875,"x_min":0,"x_max":0,"o":"m 486 1236 l 624 1236 l 494 1035 l 413 1035 m 61 67 l 654 868 l 129 868 l 129 968 l 801 968 l 801 896 l 213 100 l 811 100 l 811 0 l 61 0 "},"Ž":{"ha":875,"x_min":0,"x_max":0,"o":"m 264 1236 l 390 1236 l 482 1144 l 574 1236 l 700 1236 l 525 1068 l 439 1068 m 61 67 l 654 868 l 129 868 l 129 968 l 801 968 l 801 896 l 213 100 l 811 100 l 811 0 l 61 0 "},"Ż":{"ha":875,"x_min":0,"x_max":0,"o":"m 478 1060 b 408 1129 442 1060 408 1089 b 478 1199 408 1169 442 1199 b 547 1129 514 1199 547 1169 b 478 1060 547 1089 514 1060 m 61 67 l 654 868 l 129 868 l 129 968 l 801 968 l 801 896 l 213 100 l 811 100 l 811 0 l 61 0 "},"Ŋ":{"ha":1043,"x_min":0,"x_max":0,"o":"m 128 968 l 222 968 l 807 169 l 807 968 l 915 968 l 915 0 b 699 -289 915 -165 872 -289 b 625 -276 672 -289 649 -285 l 625 -175 b 699 -189 643 -182 664 -189 b 807 0 797 -189 807 -83 b 807 1 807 0 807 1 l 236 781 l 236 0 l 128 0 "},"Ð":{"ha":1003,"x_min":0,"x_max":0,"o":"m 128 447 l 38 447 l 38 547 l 128 547 l 128 968 l 439 968 b 939 483 753 968 939 769 b 440 0 939 197 754 0 l 128 0 m 432 100 b 831 483 701 100 831 258 b 431 868 831 710 701 868 l 236 868 l 236 547 l 438 547 l 438 447 l 236 447 l 236 100 "},"Þ":{"ha":681,"x_min":0,"x_max":0,"o":"m 128 968 l 236 968 l 236 761 l 326 761 b 624 476 522 761 624 639 b 336 201 624 319 526 201 l 236 201 l 236 0 l 128 0 m 326 303 b 515 481 451 303 515 372 b 325 660 515 590 451 660 l 236 660 l 236 303 "},"a":{"ha":874,"x_min":0,"x_max":0,"o":"m 49 350 b 403 721 49 564 207 721 b 651 596 540 721 617 656 l 651 700 l 754 700 l 754 157 b 807 69 754 96 768 69 b 843 72 817 69 833 71 l 843 -6 b 778 -17 821 -15 800 -17 b 704 3 756 -17 728 -14 b 657 103 682 19 663 49 b 403 -21 617 40 538 -21 b 49 350 207 -21 49 136 m 151 350 b 403 75 151 193 258 75 b 664 350 553 75 664 193 b 403 625 664 507 553 625 b 151 350 258 625 151 507 "},"b":{"ha":833,"x_min":0,"x_max":0,"o":"m 79 968 l 182 968 l 182 596 b 431 721 217 656 293 721 b 785 350 626 721 785 564 b 431 -21 785 136 626 -21 b 182 104 293 -21 217 44 l 182 0 l 79 0 m 169 350 b 431 75 169 193 281 75 b 682 350 575 75 682 193 b 431 625 682 507 575 625 b 169 350 281 625 169 507 "},"c":{"ha":718,"x_min":0,"x_max":0,"o":"m 49 350 b 421 721 49 564 215 721 b 686 615 526 721 618 685 l 624 543 b 421 625 571 597 500 625 b 151 350 265 625 151 507 b 421 75 151 193 265 75 b 624 157 500 75 571 103 l 686 85 b 421 -21 618 15 526 -21 b 49 350 215 -21 49 136 "},"d":{"ha":874,"x_min":0,"x_max":0,"o":"m 49 350 b 403 721 49 564 207 721 b 651 596 540 721 617 656 l 651 968 l 754 968 l 754 157 b 807 69 754 96 768 69 b 843 72 817 69 833 71 l 843 -6 b 778 -17 821 -15 800 -17 b 704 3 756 -17 728 -14 b 657 103 682 19 663 49 b 403 -21 617 40 538 -21 b 49 350 207 -21 49 136 m 151 350 b 403 75 151 193 258 75 b 664 350 553 75 664 193 b 403 625 664 507 553 625 b 151 350 258 625 151 507 "},"e":{"ha":765,"x_min":0,"x_max":0,"o":"m 49 347 b 399 721 49 574 199 721 b 721 372 593 721 721 565 b 719 328 721 372 721 349 l 151 328 b 401 75 157 174 254 75 b 617 172 503 75 558 111 l 685 106 b 401 -18 597 8 503 -18 b 49 342 193 -18 49 124 m 611 418 b 399 625 611 531 517 625 b 158 418 271 625 165 532 "},"f":{"ha":435,"x_min":0,"x_max":0,"o":"m 156 604 l 43 604 l 43 700 l 156 700 l 156 758 b 224 949 156 861 178 911 b 367 989 267 986 322 989 b 421 983 386 989 410 986 l 421 886 b 356 893 400 892 376 893 b 258 772 289 893 258 861 l 258 700 l 390 700 l 390 604 l 258 604 l 258 0 l 156 0 "},"g":{"ha":833,"x_min":0,"x_max":0,"o":"m 128 -117 b 406 -210 208 -175 292 -210 b 579 -158 475 -210 536 -193 b 651 58 643 -106 651 -18 l 651 117 b 403 -8 617 57 540 -8 b 49 356 207 -8 49 144 b 403 721 49 567 207 721 b 651 596 540 721 617 656 l 651 700 l 754 700 l 754 117 b 643 -232 754 -35 747 -150 b 407 -306 583 -279 499 -306 b 75 -199 282 -306 171 -268 l 128 -117 m 151 356 b 403 88 151 201 258 88 b 664 356 553 88 664 201 b 403 625 664 510 553 625 b 151 356 258 625 151 510 "},"h":{"ha":760,"x_min":0,"x_max":0,"o":"m 79 968 l 182 968 l 182 582 b 397 711 217 657 292 711 b 649 447 553 711 649 604 l 649 158 b 697 85 649 104 657 85 b 724 88 706 85 715 86 l 724 3 b 679 -4 710 -3 693 -4 b 546 151 626 -4 546 10 l 546 425 b 372 615 546 542 481 615 b 182 418 261 615 182 536 l 182 0 l 79 0 "},"i":{"ha":294,"x_min":0,"x_max":0,"o":"m 81 700 l 183 700 l 183 150 b 236 76 183 99 196 76 b 272 79 246 76 263 78 l 272 -6 b 207 -17 250 -15 229 -17 b 81 132 157 -17 81 -3 m 132 817 b 63 886 96 817 63 846 b 132 956 63 926 96 956 b 201 886 168 956 201 926 b 132 817 201 846 168 817 "},"j":{"ha":261,"x_min":0,"x_max":0,"o":"m 131 814 b 61 883 94 814 61 843 b 131 953 61 924 94 953 b 200 883 167 953 200 924 b 131 814 200 843 167 814 m 79 700 l 182 700 l 182 -72 b -29 -289 182 -261 61 -289 b -67 -286 -43 -289 -58 -287 l -67 -189 b -18 -193 -51 -192 -33 -193 b 79 -72 49 -193 79 -161 "},"k":{"ha":647,"x_min":0,"x_max":0,"o":"m 79 968 l 182 968 l 182 354 l 482 700 l 600 700 l 335 393 l 638 0 l 515 0 l 269 319 l 182 218 l 182 0 l 79 0 "},"l":{"ha":361,"x_min":0,"x_max":0,"o":"m 81 968 l 183 968 l 183 183 b 271 75 183 107 206 75 b 321 78 288 75 306 75 l 321 -10 b 257 -21 304 -19 279 -21 b 81 176 188 -21 81 -4 "},"m":{"ha":1142,"x_min":0,"x_max":0,"o":"m 79 700 l 182 700 l 182 582 b 379 711 214 657 282 711 b 585 572 479 711 550 658 b 803 711 624 658 700 711 b 1031 447 944 711 1031 604 l 1031 158 b 1079 85 1031 104 1039 85 b 1106 88 1088 85 1097 86 l 1106 3 b 1061 -4 1092 -3 1075 -4 b 928 151 1008 -4 928 10 l 928 425 b 775 615 928 542 871 615 b 608 418 679 615 608 536 l 608 0 l 506 0 l 506 425 b 350 615 506 542 449 615 b 182 418 254 615 182 536 l 182 0 l 79 0 "},"n":{"ha":769,"x_min":0,"x_max":0,"o":"m 79 700 l 182 700 l 182 582 b 403 711 218 657 294 711 b 658 447 561 711 658 604 l 658 158 b 707 85 658 104 665 85 b 733 88 715 85 725 86 l 733 3 b 689 -4 719 -3 703 -4 b 556 151 636 -4 556 10 l 556 425 b 376 615 556 542 488 615 b 182 418 263 615 182 536 l 182 0 l 79 0 "},"o":{"ha":842,"x_min":0,"x_max":0,"o":"m 49 350 b 421 721 49 564 215 721 b 793 350 626 721 793 564 b 421 -21 793 136 626 -21 b 49 350 215 -21 49 136 m 151 350 b 421 75 151 193 265 75 b 690 350 576 75 690 193 b 421 625 690 507 576 625 b 151 350 265 625 151 507 "},"p":{"ha":833,"x_min":0,"x_max":0,"o":"m 79 700 l 182 700 l 182 596 b 431 721 217 656 293 721 b 785 350 626 721 785 564 b 431 -21 785 136 626 -21 b 182 104 293 -21 217 44 l 182 -268 l 79 -268 m 169 350 b 431 75 169 193 281 75 b 682 350 575 75 682 193 b 431 625 682 507 575 625 b 169 350 281 625 169 507 "},"q":{"ha":833,"x_min":0,"x_max":0,"o":"m 49 350 b 403 721 49 564 207 721 b 651 596 540 721 617 656 l 651 700 l 754 700 l 754 -268 l 651 -268 l 651 104 b 403 -21 617 44 540 -21 b 49 350 207 -21 49 136 m 151 350 b 403 75 151 193 258 75 b 664 350 553 75 664 193 b 403 625 664 507 553 625 b 151 350 258 625 151 507 "},"r":{"ha":501,"x_min":0,"x_max":0,"o":"m 79 700 l 182 700 l 182 582 b 397 711 217 657 292 711 b 440 708 413 711 431 710 l 440 597 b 371 604 424 601 400 604 b 182 407 263 604 182 525 l 182 0 l 79 0 "},"s":{"ha":575,"x_min":0,"x_max":0,"o":"m 113 185 b 289 79 129 132 185 79 b 443 186 418 79 443 146 b 268 332 443 263 378 289 b 78 536 157 376 78 425 b 289 721 78 644 165 721 b 492 600 383 721 451 679 l 408 557 b 290 626 383 603 349 626 b 181 536 228 626 181 594 b 333 410 181 474 242 444 b 546 186 468 358 546 299 b 289 -17 546 86 467 -17 b 25 151 160 -17 54 42 "},"t":{"ha":428,"x_min":0,"x_max":0,"o":"m 124 604 l 42 604 l 42 700 l 124 700 l 124 968 l 226 968 l 226 700 l 389 700 l 389 604 l 226 604 l 226 196 b 324 75 226 106 257 75 b 389 79 343 75 363 75 l 389 -10 b 311 -21 371 -18 340 -21 b 124 196 232 -21 124 7 "},"u":{"ha":760,"x_min":0,"x_max":0,"o":"m 71 700 l 174 700 l 174 275 b 347 85 174 158 239 85 b 538 282 458 85 538 164 l 538 700 l 640 700 l 640 163 b 693 75 640 101 654 75 b 729 78 703 75 719 76 l 729 0 b 664 -11 707 -11 686 -11 b 578 21 638 -11 603 -7 b 546 90 564 36 551 58 b 322 -11 514 42 444 -11 b 71 253 167 -11 71 96 "},"v":{"ha":711,"x_min":0,"x_max":0,"o":"m 21 700 l 129 700 l 356 167 l 582 700 l 692 700 l 392 0 l 321 0 "},"w":{"ha":1036,"x_min":0,"x_max":0,"o":"m 21 700 l 126 700 l 307 194 l 482 700 l 554 700 l 728 194 l 908 700 l 1015 700 l 763 0 l 694 0 l 518 510 l 342 0 l 274 0 "},"x":{"ha":713,"x_min":0,"x_max":0,"o":"m 301 372 l 57 700 l 171 700 l 356 451 l 540 700 l 654 700 l 411 374 l 678 0 l 565 0 l 357 293 l 147 0 l 35 0 "},"y":{"ha":700,"x_min":0,"x_max":0,"o":"m 89 -183 b 158 -194 111 -192 135 -194 b 218 -179 179 -194 199 -192 b 274 -94 238 -165 256 -140 l 304 -15 l 21 700 l 124 700 l 354 110 l 576 700 l 679 700 l 363 -119 b 294 -237 346 -162 325 -204 b 158 -290 258 -275 211 -290 b 89 -278 135 -290 108 -286 l 89 -183 "},"z":{"ha":693,"x_min":0,"x_max":0,"o":"m 39 61 l 468 604 l 85 604 l 85 700 l 614 700 l 614 632 l 188 96 l 636 96 l 636 0 l 39 0 "},"à":{"ha":874,"x_min":0,"x_max":0,"o":"m 240 968 l 378 968 l 451 767 l 369 767 m 49 350 b 403 721 49 564 207 721 b 651 596 540 721 617 656 l 651 700 l 754 700 l 754 157 b 807 69 754 96 768 69 b 843 72 817 69 833 71 l 843 -6 b 778 -17 821 -15 800 -17 b 704 3 756 -17 728 -14 b 657 103 682 19 663 49 b 403 -21 617 40 538 -21 b 49 350 207 -21 49 136 m 151 350 b 403 75 151 193 258 75 b 664 350 553 75 664 193 b 403 625 664 507 553 625 b 151 350 258 625 151 507 "},"á":{"ha":874,"x_min":0,"x_max":0,"o":"m 436 968 l 574 968 l 444 767 l 363 767 m 49 350 b 403 721 49 564 207 721 b 651 596 540 721 617 656 l 651 700 l 754 700 l 754 157 b 807 69 754 96 768 69 b 843 72 817 69 833 71 l 843 -6 b 778 -17 821 -15 800 -17 b 704 3 756 -17 728 -14 b 657 103 682 19 663 49 b 403 -21 617 40 538 -21 b 49 350 207 -21 49 136 m 151 350 b 403 75 151 193 258 75 b 664 350 553 75 664 193 b 403 625 664 507 553 625 b 151 350 258 625 151 507 "},"â":{"ha":874,"x_min":0,"x_max":0,"o":"m 383 968 l 469 968 l 644 800 l 518 800 l 426 892 l 335 800 l 208 800 m 49 350 b 403 721 49 564 207 721 b 651 596 540 721 617 656 l 651 700 l 754 700 l 754 157 b 807 69 754 96 768 69 b 843 72 817 69 833 71 l 843 -6 b 778 -17 821 -15 800 -17 b 704 3 756 -17 728 -14 b 657 103 682 19 663 49 b 403 -21 617 40 538 -21 b 49 350 207 -21 49 136 m 151 350 b 403 75 151 193 258 75 b 664 350 553 75 664 193 b 403 625 664 507 553 625 b 151 350 258 625 151 507 "},"ã":{"ha":874,"x_min":0,"x_max":0,"o":"m 213 831 b 338 958 221 903 267 958 b 500 904 408 958 449 904 b 564 961 535 904 554 921 l 632 956 b 504 819 622 872 585 819 b 340 874 431 819 393 874 b 281 825 313 874 289 860 l 213 831 m 49 350 b 403 721 49 564 207 721 b 651 596 540 721 617 656 l 651 700 l 754 700 l 754 157 b 807 69 754 96 768 69 b 843 72 817 69 833 71 l 843 -6 b 778 -17 821 -15 800 -17 b 704 3 756 -17 728 -14 b 657 103 682 19 663 49 b 403 -21 617 40 538 -21 b 49 350 207 -21 49 136 m 151 350 b 403 75 151 193 258 75 b 664 350 553 75 664 193 b 403 625 664 507 553 625 b 151 350 258 625 151 507 "},"ä":{"ha":874,"x_min":0,"x_max":0,"o":"m 563 814 b 493 883 526 814 493 843 b 563 953 493 924 526 953 b 632 883 599 953 632 924 b 563 814 632 843 599 814 m 276 814 b 207 883 240 814 207 843 b 276 953 207 924 240 953 b 346 883 313 953 346 924 b 276 814 346 843 313 814 m 49 350 b 403 721 49 564 207 721 b 651 596 540 721 617 656 l 651 700 l 754 700 l 754 157 b 807 69 754 96 768 69 b 843 72 817 69 833 71 l 843 -6 b 778 -17 821 -15 800 -17 b 704 3 756 -17 728 -14 b 657 103 682 19 663 49 b 403 -21 617 40 538 -21 b 49 350 207 -21 49 136 m 151 350 b 403 75 151 193 258 75 b 664 350 553 75 664 193 b 403 625 664 507 553 625 b 151 350 258 625 151 507 "},"ā":{"ha":874,"x_min":0,"x_max":0,"o":"m 222 931 l 631 931 l 631 835 l 222 835 m 49 350 b 403 721 49 564 207 721 b 651 596 540 721 617 656 l 651 700 l 754 700 l 754 157 b 807 69 754 96 768 69 b 843 72 817 69 833 71 l 843 -6 b 778 -17 821 -15 800 -17 b 704 3 756 -17 728 -14 b 657 103 682 19 663 49 b 403 -21 617 40 538 -21 b 49 350 207 -21 49 136 m 151 350 b 403 75 151 193 258 75 b 664 350 553 75 664 193 b 403 625 664 507 553 625 b 151 350 258 625 151 507 "},"ă":{"ha":874,"x_min":0,"x_max":0,"o":"m 404 775 b 188 968 296 775 203 850 l 283 968 b 404 867 304 903 343 867 b 525 968 465 867 504 903 l 621 968 b 404 775 606 850 513 775 m 49 350 b 403 721 49 564 207 721 b 651 596 540 721 617 656 l 651 700 l 754 700 l 754 157 b 807 69 754 96 768 69 b 843 72 817 69 833 71 l 843 -6 b 778 -17 821 -15 800 -17 b 704 3 756 -17 728 -14 b 657 103 682 19 663 49 b 403 -21 617 40 538 -21 b 49 350 207 -21 49 136 m 151 350 b 403 75 151 193 258 75 b 664 350 553 75 664 193 b 403 625 664 507 553 625 b 151 350 258 625 151 507 "},"å":{"ha":874,"x_min":0,"x_max":0,"o":"m 424 772 b 288 908 349 772 288 833 b 424 1043 288 982 349 1043 b 558 908 497 1043 558 982 b 424 772 558 833 499 772 m 424 843 b 488 908 458 843 488 874 b 424 972 488 943 458 972 b 358 908 389 972 358 943 b 424 843 358 874 389 843 m 49 350 b 403 721 49 564 207 721 b 651 596 540 721 617 656 l 651 700 l 754 700 l 754 157 b 807 69 754 96 768 69 b 843 72 817 69 833 71 l 843 -6 b 778 -17 821 -15 800 -17 b 704 3 756 -17 728 -14 b 657 103 682 19 663 49 b 403 -21 617 40 538 -21 b 49 350 207 -21 49 136 m 151 350 b 403 75 151 193 258 75 b 664 350 553 75 664 193 b 403 625 664 507 553 625 b 151 350 258 625 151 507 "},"ǻ":{"ha":874,"x_min":0,"x_max":0,"o":"m 446 1296 l 583 1296 l 454 1094 l 372 1094 m 417 772 b 281 908 342 772 281 833 b 417 1043 281 982 342 1043 b 551 908 490 1043 551 982 b 417 772 551 833 492 772 m 417 843 b 481 908 451 843 481 874 b 417 972 481 943 451 972 b 351 908 382 972 351 943 b 417 843 351 874 382 843 m 49 350 b 403 721 49 564 207 721 b 651 596 540 721 617 656 l 651 700 l 754 700 l 754 157 b 807 69 754 96 768 69 b 843 72 817 69 833 71 l 843 -6 b 778 -17 821 -15 800 -17 b 704 3 756 -17 728 -14 b 657 103 682 19 663 49 b 403 -21 617 40 538 -21 b 49 350 207 -21 49 136 m 151 350 b 403 75 151 193 258 75 b 664 350 553 75 664 193 b 403 625 664 507 553 625 b 151 350 258 625 151 507 "},"ą":{"ha":874,"x_min":0,"x_max":0,"o":"m 49 350 b 403 721 49 564 207 721 b 651 596 540 721 617 656 l 651 700 l 754 700 l 754 157 b 807 69 754 96 768 69 b 843 72 817 69 833 71 l 843 -6 b 710 -132 779 -29 710 -75 b 779 -194 710 -175 743 -194 b 860 -174 808 -194 835 -187 l 842 -256 b 763 -275 817 -268 790 -275 b 622 -151 692 -275 622 -229 b 728 -10 622 -83 671 -32 b 704 3 719 -7 713 -3 b 657 103 682 19 663 49 b 403 -21 617 40 538 -21 b 49 350 207 -21 49 136 m 151 350 b 403 75 151 193 258 75 b 664 350 553 75 664 193 b 403 625 664 507 553 625 b 151 350 258 625 151 507 "},"æ":{"ha":1388,"x_min":0,"x_max":0,"o":"m 49 350 b 403 721 49 564 207 721 b 651 596 540 721 617 656 l 651 700 l 754 700 l 754 575 b 1011 721 800 657 903 721 b 1340 350 1192 721 1340 564 b 1339 328 1340 350 1340 339 l 771 328 b 1014 75 776 175 869 75 b 1236 172 1119 75 1172 111 l 1304 106 b 1014 -21 1213 6 1119 -21 b 754 108 894 -21 801 29 l 754 0 l 651 0 l 651 104 b 403 -21 617 44 540 -21 b 49 350 207 -21 49 136 m 151 350 b 403 75 151 193 258 75 b 664 350 553 75 664 193 b 403 625 664 507 553 625 b 151 350 258 625 151 507 m 1231 418 b 1011 625 1208 540 1121 625 b 778 418 894 625 801 540 "},"ǽ":{"ha":1388,"x_min":0,"x_max":0,"o":"m 724 968 l 861 968 l 732 767 l 650 767 m 49 350 b 403 721 49 564 207 721 b 651 596 540 721 617 656 l 651 700 l 754 700 l 754 575 b 1011 721 800 657 903 721 b 1340 350 1192 721 1340 564 b 1339 328 1340 350 1340 339 l 771 328 b 1014 75 776 175 869 75 b 1236 172 1119 75 1172 111 l 1304 106 b 1014 -21 1213 6 1119 -21 b 754 108 894 -21 801 29 l 754 0 l 651 0 l 651 104 b 403 -21 617 44 540 -21 b 49 350 207 -21 49 136 m 151 350 b 403 75 151 193 258 75 b 664 350 553 75 664 193 b 403 625 664 507 553 625 b 151 350 258 625 151 507 m 1231 418 b 1011 625 1208 540 1121 625 b 778 418 894 625 801 540 "},"ć":{"ha":718,"x_min":0,"x_max":0,"o":"m 449 968 l 586 968 l 457 767 l 375 767 m 49 350 b 421 721 49 564 215 721 b 686 615 526 721 618 685 l 624 543 b 421 625 571 597 500 625 b 151 350 265 625 151 507 b 421 75 151 193 265 75 b 624 157 500 75 571 103 l 686 85 b 421 -21 618 15 526 -21 b 49 350 215 -21 49 136 "},"ĉ":{"ha":718,"x_min":0,"x_max":0,"o":"m 379 968 l 465 968 l 640 800 l 514 800 l 422 892 l 331 800 l 204 800 m 49 350 b 421 721 49 564 215 721 b 686 615 526 721 618 685 l 624 543 b 421 625 571 597 500 625 b 151 350 265 625 151 507 b 421 75 151 193 265 75 b 624 157 500 75 571 103 l 686 85 b 421 -21 618 15 526 -21 b 49 350 215 -21 49 136 "},"č":{"ha":718,"x_min":0,"x_max":0,"o":"m 199 968 l 325 968 l 417 876 l 508 968 l 635 968 l 460 800 l 374 800 m 49 350 b 421 721 49 564 215 721 b 686 615 526 721 618 685 l 624 543 b 421 625 571 597 500 625 b 151 350 265 625 151 507 b 421 75 151 193 265 75 b 624 157 500 75 571 103 l 686 85 b 421 -21 618 15 526 -21 b 49 350 215 -21 49 136 "},"ċ":{"ha":718,"x_min":0,"x_max":0,"o":"m 417 800 b 347 869 381 800 347 829 b 417 939 347 910 381 939 b 486 869 453 939 486 910 b 417 800 486 829 453 800 m 49 350 b 421 721 49 564 215 721 b 686 615 526 721 618 685 l 624 543 b 421 625 571 597 500 625 b 151 350 265 625 151 507 b 421 75 151 193 265 75 b 624 157 500 75 571 103 l 686 85 b 421 -21 618 15 526 -21 b 49 350 215 -21 49 136 "},"ç":{"ha":718,"x_min":0,"x_max":0,"o":"m 49 350 b 421 721 49 564 215 721 b 686 615 526 721 618 685 l 624 543 b 421 625 571 597 500 625 b 151 350 265 625 151 507 b 421 75 151 193 265 75 b 624 157 500 75 571 103 l 686 85 b 421 -21 618 15 526 -21 l 408 -21 l 389 -64 b 481 -162 439 -64 481 -101 b 338 -275 481 -243 424 -275 b 235 -243 297 -275 254 -258 l 261 -189 b 336 -212 286 -204 304 -212 b 397 -162 371 -212 397 -193 b 296 -106 397 -115 360 -106 l 335 -11 b 49 350 171 25 49 167 "},"ď":{"ha":1079,"x_min":0,"x_max":0,"o":"m 876 968 l 1014 968 l 885 767 l 803 767 m 49 350 b 403 721 49 564 207 721 b 651 596 540 721 617 656 l 651 968 l 754 968 l 754 157 b 807 69 754 96 768 69 b 843 72 817 69 833 71 l 843 -6 b 778 -17 821 -15 800 -17 b 704 3 756 -17 728 -14 b 657 103 682 19 663 49 b 403 -21 617 40 538 -21 b 49 350 207 -21 49 136 m 151 350 b 403 75 151 193 258 75 b 664 350 553 75 664 193 b 403 625 664 507 553 625 b 151 350 258 625 151 507 "},"đ":{"ha":874,"x_min":0,"x_max":0,"o":"m 49 350 b 403 721 49 564 207 721 b 651 596 540 721 617 656 l 651 799 l 376 799 l 376 882 l 651 882 l 651 968 l 754 968 l 754 882 l 833 882 l 833 799 l 754 799 l 754 157 b 807 69 754 96 768 69 b 843 72 817 69 833 71 l 843 -6 b 778 -17 821 -15 800 -17 b 704 3 756 -17 728 -14 b 657 103 682 19 663 50 b 403 -21 617 40 538 -21 b 49 350 207 -21 49 136 m 151 350 b 403 75 151 193 258 75 b 664 350 553 75 664 193 b 403 625 664 507 553 625 b 151 350 258 625 151 507 "},"è":{"ha":765,"x_min":0,"x_max":0,"o":"m 249 968 l 386 968 l 460 767 l 378 767 m 49 347 b 399 721 49 574 199 721 b 721 372 593 721 721 565 b 719 328 721 372 721 349 l 151 328 b 401 75 157 174 254 75 b 617 172 503 75 558 111 l 685 106 b 401 -18 597 8 503 -18 b 49 342 193 -18 49 124 m 611 418 b 399 625 611 531 517 625 b 158 418 271 625 165 532 "},"é":{"ha":765,"x_min":0,"x_max":0,"o":"m 432 968 l 569 968 l 440 767 l 358 767 m 49 347 b 399 721 49 574 199 721 b 721 372 593 721 721 565 b 719 328 721 372 721 349 l 151 328 b 401 75 157 174 254 75 b 617 172 503 75 558 111 l 685 106 b 401 -18 597 8 503 -18 b 49 342 193 -18 49 124 m 611 418 b 399 625 611 531 517 625 b 158 418 271 625 165 532 "},"ê":{"ha":765,"x_min":0,"x_max":0,"o":"m 358 968 l 444 968 l 619 800 l 493 800 l 401 892 l 310 800 l 183 800 m 49 347 b 399 721 49 574 199 721 b 721 372 593 721 721 565 b 719 328 721 372 721 349 l 151 328 b 401 75 157 174 254 75 b 617 172 503 75 558 111 l 685 106 b 401 -18 597 8 503 -18 b 49 342 193 -18 49 124 m 611 418 b 399 625 611 531 517 625 b 158 418 271 625 165 532 "},"ě":{"ha":765,"x_min":0,"x_max":0,"o":"m 176 968 l 303 968 l 394 876 l 486 968 l 613 968 l 438 800 l 351 800 m 49 347 b 399 721 49 574 199 721 b 721 372 593 721 721 565 b 719 328 721 372 721 349 l 151 328 b 401 75 157 174 254 75 b 617 172 503 75 558 111 l 685 106 b 401 -18 597 8 503 -18 b 49 342 193 -18 49 124 m 611 418 b 399 625 611 531 517 625 b 158 418 271 625 165 532 "},"ë":{"ha":765,"x_min":0,"x_max":0,"o":"m 543 814 b 474 883 507 814 474 843 b 543 953 474 924 507 953 b 613 883 579 953 613 924 b 543 814 613 843 579 814 m 257 814 b 188 883 221 814 188 843 b 257 953 188 924 221 953 b 326 883 293 953 326 924 b 257 814 326 843 293 814 m 49 347 b 399 721 49 574 199 721 b 721 372 593 721 721 565 b 719 328 721 372 721 349 l 151 328 b 401 75 157 174 254 75 b 617 172 503 75 558 111 l 685 106 b 401 -18 597 8 503 -18 b 49 342 193 -18 49 124 m 611 418 b 399 625 611 531 517 625 b 158 418 271 625 165 532 "},"ē":{"ha":765,"x_min":0,"x_max":0,"o":"m 197 931 l 606 931 l 606 835 l 197 835 m 49 347 b 399 721 49 574 199 721 b 721 372 593 721 721 565 b 719 328 721 372 721 349 l 151 328 b 401 75 157 174 254 75 b 617 172 503 75 558 111 l 685 106 b 401 -18 597 8 503 -18 b 49 342 193 -18 49 124 m 611 418 b 399 625 611 531 517 625 b 158 418 271 625 165 532 "},"ĕ":{"ha":765,"x_min":0,"x_max":0,"o":"m 400 775 b 183 968 292 775 199 850 l 279 968 b 400 867 300 903 339 867 b 521 968 461 867 500 903 l 617 968 b 400 775 601 850 508 775 m 49 347 b 399 721 49 574 199 721 b 721 372 593 721 721 565 b 719 328 721 372 721 349 l 151 328 b 401 75 157 174 254 75 b 617 172 503 75 558 111 l 685 106 b 401 -18 597 8 503 -18 b 49 342 193 -18 49 124 m 611 418 b 399 625 611 531 517 625 b 158 418 271 625 165 532 "},"ė":{"ha":765,"x_min":0,"x_max":0,"o":"m 400 814 b 331 883 364 814 331 843 b 400 953 331 924 364 953 b 469 883 436 953 469 924 b 400 814 469 843 436 814 m 49 347 b 399 721 49 574 199 721 b 721 372 593 721 721 565 b 719 328 721 372 721 349 l 151 328 b 401 75 157 174 254 75 b 617 172 503 75 558 111 l 685 106 b 401 -18 597 8 503 -18 b 49 342 193 -18 49 124 m 611 418 b 399 625 611 531 517 625 b 158 418 271 625 165 532 "},"ę":{"ha":765,"x_min":0,"x_max":0,"o":"m 49 347 b 399 721 49 574 199 721 b 721 372 593 721 721 565 b 719 328 721 372 721 349 l 151 328 b 401 75 157 174 254 75 b 617 172 503 75 558 111 l 685 106 b 575 19 658 78 618 47 b 446 -126 519 -17 446 -51 b 513 -189 446 -169 478 -189 b 590 -168 540 -189 565 -182 l 572 -250 b 496 -269 547 -262 524 -269 b 358 -146 428 -269 358 -224 b 429 -18 358 -92 390 -49 b 428 -18 429 -18 428 -18 b 49 342 200 -18 49 104 m 611 418 b 399 625 611 531 517 625 b 158 418 271 625 165 532 "},"ĝ":{"ha":833,"x_min":0,"x_max":0,"o":"m 374 968 l 460 968 l 635 800 l 508 800 l 417 892 l 325 800 l 199 800 m 128 -117 b 406 -210 208 -175 292 -210 b 579 -158 475 -210 536 -193 b 651 58 643 -106 651 -18 l 651 117 b 403 -8 617 57 540 -8 b 49 356 207 -8 49 144 b 403 721 49 567 207 721 b 651 596 540 721 617 656 l 651 700 l 754 700 l 754 117 b 643 -232 754 -35 747 -150 b 407 -306 583 -279 499 -306 b 75 -199 282 -306 171 -268 l 128 -117 m 151 356 b 403 88 151 201 258 88 b 664 356 553 88 664 201 b 403 625 664 510 553 625 b 151 356 258 625 151 510 "},"ğ":{"ha":833,"x_min":0,"x_max":0,"o":"m 407 775 b 190 968 299 775 206 850 l 286 968 b 407 867 307 903 346 867 b 528 968 468 867 507 903 l 624 968 b 407 775 608 850 515 775 m 128 -117 b 406 -210 208 -175 292 -210 b 579 -158 475 -210 536 -193 b 651 58 643 -106 651 -18 l 651 117 b 403 -8 617 57 540 -8 b 49 356 207 -8 49 144 b 403 721 49 567 207 721 b 651 596 540 721 617 656 l 651 700 l 754 700 l 754 117 b 643 -232 754 -35 747 -150 b 407 -306 583 -279 499 -306 b 75 -199 282 -306 171 -268 l 128 -117 m 151 356 b 403 88 151 201 258 88 b 664 356 553 88 664 201 b 403 625 664 510 553 625 b 151 356 258 625 151 510 "},"ġ":{"ha":833,"x_min":0,"x_max":0,"o":"m 417 814 b 347 883 381 814 347 843 b 417 953 347 924 381 953 b 486 883 453 953 486 924 b 417 814 486 843 453 814 m 128 -117 b 406 -210 208 -175 292 -210 b 579 -158 475 -210 536 -193 b 651 58 643 -106 651 -18 l 651 117 b 403 -8 617 57 540 -8 b 49 356 207 -8 49 144 b 403 721 49 567 207 721 b 651 596 540 721 617 656 l 651 700 l 754 700 l 754 117 b 643 -232 754 -35 747 -150 b 407 -306 583 -279 499 -306 b 75 -199 282 -306 171 -268 l 128 -117 m 151 356 b 403 88 151 201 258 88 b 664 356 553 88 664 201 b 403 625 664 510 553 625 b 151 356 258 625 151 510 "},"ģ":{"ha":833,"x_min":0,"x_max":0,"o":"m 428 968 l 565 968 l 436 767 l 354 767 m 128 -117 b 406 -210 208 -175 292 -210 b 579 -158 475 -210 536 -193 b 651 58 643 -106 651 -18 l 651 117 b 403 -8 617 57 540 -8 b 49 356 207 -8 49 144 b 403 721 49 567 207 721 b 651 596 540 721 617 656 l 651 700 l 754 700 l 754 117 b 643 -232 754 -35 747 -150 b 407 -306 583 -279 499 -306 b 75 -199 282 -306 171 -268 l 128 -117 m 151 356 b 403 88 151 201 258 88 b 664 356 553 88 664 201 b 403 625 664 510 553 625 b 151 356 258 625 151 510 "},"ĥ":{"ha":760,"x_min":0,"x_max":0,"o":"m 88 1169 l 174 1169 l 349 1001 l 222 1001 l 131 1093 l 39 1001 l -87 1001 m 79 968 l 182 968 l 182 582 b 397 711 217 657 292 711 b 649 447 553 711 649 604 l 649 158 b 697 85 649 104 657 85 b 724 88 706 85 715 86 l 724 3 b 679 -4 710 -3 693 -4 b 546 151 626 -4 546 10 l 546 425 b 372 615 546 542 481 615 b 182 418 261 615 182 536 l 182 0 l 79 0 "},"ħ":{"ha":760,"x_min":0,"x_max":0,"o":"m 79 796 l 0 796 l 0 879 l 79 879 l 79 968 l 182 968 l 182 879 l 457 879 l 457 796 l 182 796 l 182 582 b 397 711 217 657 292 711 b 649 447 553 711 649 604 l 649 158 b 697 85 649 104 657 85 b 724 88 706 85 715 86 l 724 3 b 679 -4 710 -3 693 -4 b 546 151 626 -4 546 10 l 546 425 b 372 615 546 542 481 615 b 182 418 261 615 182 536 l 182 0 l 79 0 "},"ì":{"ha":294,"x_min":0,"x_max":0,"o":"m -29 968 l 108 968 l 182 767 l 100 767 m 81 700 l 183 700 l 183 150 b 236 76 183 99 196 76 b 272 79 246 76 263 78 l 272 -6 b 207 -17 250 -15 229 -17 b 81 132 157 -17 81 -3 "},"í":{"ha":294,"x_min":0,"x_max":0,"o":"m 157 968 l 294 968 l 165 767 l 83 767 m 81 700 l 183 700 l 183 150 b 236 76 183 99 196 76 b 272 79 246 76 263 78 l 272 -6 b 207 -17 250 -15 229 -17 b 81 132 157 -17 81 -3 "},"î":{"ha":294,"x_min":0,"x_max":0,"o":"m 89 968 l 175 968 l 315 800 l 196 800 l 132 900 l 68 800 l -51 800 m 81 700 l 183 700 l 183 150 b 236 76 183 99 196 76 b 272 79 246 76 263 78 l 272 -6 b 207 -17 250 -15 229 -17 b 81 132 157 -17 81 -3 "},"ĩ":{"ha":294,"x_min":0,"x_max":0,"o":"m -49 833 b 60 958 -40 904 -3 958 b 193 904 111 958 161 904 b 244 961 221 904 236 921 l 310 956 b 200 822 301 874 271 822 b 65 876 149 822 100 876 b 18 828 42 876 24 863 m 81 700 l 183 700 l 183 150 b 236 76 183 99 196 76 b 272 79 246 76 263 78 l 272 -6 b 207 -17 250 -15 229 -17 b 81 132 157 -17 81 -3 "},"ï":{"ha":294,"x_min":0,"x_max":0,"o":"m 232 814 b 163 883 196 814 163 843 b 232 953 163 924 196 953 b 301 883 268 953 301 924 b 232 814 301 843 268 814 m 32 814 b -37 883 -4 814 -37 843 b 32 953 -37 924 -4 953 b 101 883 68 953 101 924 b 32 814 101 843 68 814 m 81 700 l 183 700 l 183 150 b 236 76 183 99 196 76 b 272 79 246 76 263 78 l 272 -6 b 207 -17 250 -15 229 -17 b 81 132 157 -17 81 -3 "},"ī":{"ha":294,"x_min":0,"x_max":0,"o":"m -33 931 l 297 931 l 297 835 l -33 835 m 81 700 l 183 700 l 183 150 b 236 76 183 99 196 76 b 272 79 246 76 263 78 l 272 -6 b 207 -17 250 -15 229 -17 b 81 132 157 -17 81 -3 "},"ĭ":{"ha":294,"x_min":0,"x_max":0,"o":"m 132 783 b -46 968 29 783 -42 854 l 50 968 b 132 875 53 914 79 875 b 214 968 185 875 211 914 l 310 968 b 132 783 306 854 235 783 m 81 700 l 183 700 l 183 150 b 236 76 183 99 196 76 b 272 79 246 76 263 78 l 272 -6 b 207 -17 250 -15 229 -17 b 81 132 157 -17 81 -3 "},"į":{"ha":294,"x_min":0,"x_max":0,"o":"m 81 700 l 183 700 l 183 150 b 236 76 183 99 196 76 b 272 79 246 76 263 78 l 272 -6 b 167 -137 231 -32 167 -82 b 236 -200 167 -181 200 -200 b 317 -179 265 -200 292 -193 l 299 -261 b 219 -281 274 -274 247 -281 b 79 -157 149 -281 79 -235 b 171 -12 79 -93 124 -44 b 81 132 126 -4 81 26 m 132 814 b 63 883 96 814 63 843 b 132 953 63 924 96 953 b 201 883 168 953 201 924 b 132 814 201 843 168 814 "},"ĳ":{"ha":507,"x_min":0,"x_max":0,"o":"m 375 814 b 306 883 339 814 306 843 b 375 953 306 924 339 953 b 444 883 411 953 444 924 b 375 814 444 843 411 814 m 132 814 b 63 883 96 814 63 843 b 132 953 63 924 96 953 b 201 883 168 953 201 924 b 132 814 201 843 168 814 m 83 93 b 215 75 124 81 175 75 b 324 204 288 75 324 111 l 324 700 l 426 700 l 426 204 b 357 21 426 107 401 56 b 204 -21 310 -18 254 -21 b 83 -4 157 -21 108 -12 m 81 700 l 183 700 l 183 192 l 81 192 "},"ı":{"ha":294,"x_min":0,"x_max":0,"o":"m 81 700 l 183 700 l 183 150 b 236 76 183 99 196 76 b 272 79 246 76 263 78 l 272 -6 b 207 -17 250 -15 229 -17 b 81 132 157 -17 81 -3 "},"ĵ":{"ha":289,"x_min":0,"x_max":0,"o":"m 101 968 l 188 968 l 328 800 l 208 800 l 144 900 l 81 800 l -39 800 m 93 700 l 196 700 l 196 -72 b -15 -289 196 -261 75 -289 b -53 -286 -29 -289 -44 -287 l -53 -189 b -4 -193 -37 -192 -19 -193 b 93 -72 63 -193 93 -161 "},"ķ":{"ha":647,"x_min":0,"x_max":0,"o":"m 79 968 l 182 968 l 182 354 l 482 700 l 600 700 l 335 393 l 638 0 l 515 0 l 269 319 l 182 218 l 182 0 l 79 0 m 401 -67 l 272 -268 l 190 -268 l 264 -67 "},"ĺ":{"ha":361,"x_min":0,"x_max":0,"o":"m 156 1204 l 293 1204 l 164 1003 l 82 1003 m 81 176 b 257 -21 81 -4 188 -21 b 321 -10 279 -21 304 -19 l 321 78 b 271 75 306 75 288 75 b 183 183 206 75 183 107 l 183 968 l 81 968 "},"ľ":{"ha":438,"x_min":0,"x_max":0,"o":"m 81 968 l 183 968 l 183 183 b 271 75 183 107 206 75 b 321 78 288 75 306 75 l 321 -10 b 257 -21 304 -19 279 -21 b 81 176 188 -21 81 -4 m 311 968 l 449 968 l 319 767 l 238 767 "},"ļ":{"ha":361,"x_min":0,"x_max":0,"o":"m 81 968 l 183 968 l 183 183 b 271 75 183 107 206 75 b 321 78 288 75 306 75 l 321 -10 b 257 -21 304 -19 279 -21 b 81 176 188 -21 81 -4 m 215 -67 l 86 -268 l 4 -268 l 78 -67 "},"ŀ":{"ha":438,"x_min":0,"x_max":0,"o":"m 81 968 l 183 968 l 183 183 b 271 75 183 107 206 75 b 321 78 288 75 306 75 l 321 -10 b 257 -21 304 -19 279 -21 b 81 176 188 -21 81 -4 m 326 442 b 257 511 290 442 257 471 b 326 581 257 551 290 581 b 396 511 363 581 396 551 b 326 442 396 471 363 442 "},"ł":{"ha":381,"x_min":0,"x_max":0,"o":"m 100 431 l 6 375 l 6 482 l 100 538 l 100 968 l 203 968 l 203 599 l 321 669 l 321 563 l 203 492 l 203 183 b 290 75 203 107 225 75 b 340 78 307 75 325 75 l 340 -10 b 276 -21 324 -19 299 -21 b 100 176 207 -21 100 -4 "},"ń":{"ha":769,"x_min":0,"x_max":0,"o":"m 431 968 l 568 968 l 439 767 l 357 767 m 79 700 l 182 700 l 182 582 b 403 711 218 657 294 711 b 658 447 561 711 658 604 l 658 158 b 707 85 658 104 665 85 b 733 88 715 85 725 86 l 733 3 b 689 -4 719 -3 703 -4 b 556 151 636 -4 556 10 l 556 425 b 376 615 556 542 488 615 b 182 418 263 615 182 536 l 182 0 l 79 0 "},"ň":{"ha":769,"x_min":0,"x_max":0,"o":"m 165 968 l 292 968 l 383 876 l 475 968 l 601 968 l 426 800 l 340 800 m 79 700 l 182 700 l 182 582 b 403 711 218 657 294 711 b 658 447 561 711 658 604 l 658 158 b 707 85 658 104 665 85 b 733 88 715 85 725 86 l 733 3 b 689 -4 719 -3 703 -4 b 556 151 636 -4 556 10 l 556 425 b 376 615 556 542 488 615 b 182 418 263 615 182 536 l 182 0 l 79 0 "},"ñ":{"ha":769,"x_min":0,"x_max":0,"o":"m 178 831 b 303 958 186 903 232 958 b 465 904 374 958 414 904 b 529 961 500 904 519 921 l 597 956 b 469 819 588 872 550 819 b 306 874 396 819 358 874 b 246 825 278 874 254 860 l 178 831 m 79 700 l 182 700 l 182 582 b 403 711 218 657 294 711 b 658 447 561 711 658 604 l 658 158 b 707 85 658 104 665 85 b 733 88 715 85 725 86 l 733 3 b 689 -4 719 -3 703 -4 b 556 151 636 -4 556 10 l 556 425 b 376 615 556 542 488 615 b 182 418 263 615 182 536 l 182 0 l 79 0 "},"ņ":{"ha":769,"x_min":0,"x_max":0,"o":"m 451 -67 l 322 -268 l 240 -268 l 314 -67 m 79 700 l 182 700 l 182 582 b 403 711 218 657 294 711 b 658 447 561 711 658 604 l 658 158 b 707 85 658 104 665 85 b 733 88 715 85 725 86 l 733 3 b 689 -4 719 -3 703 -4 b 556 151 636 -4 556 10 l 556 425 b 376 615 556 542 488 615 b 182 418 263 615 182 536 l 182 0 l 79 0 "},"ò":{"ha":842,"x_min":0,"x_max":0,"o":"m 249 968 l 386 968 l 460 767 l 378 767 m 49 350 b 421 721 49 564 215 721 b 793 350 626 721 793 564 b 421 -21 793 136 626 -21 b 49 350 215 -21 49 136 m 151 350 b 421 75 151 193 265 75 b 690 350 576 75 690 193 b 421 625 690 507 576 625 b 151 350 265 625 151 507 "},"ó":{"ha":842,"x_min":0,"x_max":0,"o":"m 456 968 l 593 968 l 464 767 l 382 767 m 49 350 b 421 721 49 564 215 721 b 793 350 626 721 793 564 b 421 -21 793 136 626 -21 b 49 350 215 -21 49 136 m 151 350 b 421 75 151 193 265 75 b 690 350 576 75 690 193 b 421 625 690 507 576 625 b 151 350 265 625 151 507 "},"ô":{"ha":842,"x_min":0,"x_max":0,"o":"m 378 968 l 464 968 l 639 800 l 513 800 l 421 892 l 329 800 l 203 800 m 49 350 b 421 721 49 564 215 721 b 793 350 626 721 793 564 b 421 -21 793 136 626 -21 b 49 350 215 -21 49 136 m 151 350 b 421 75 151 193 265 75 b 690 350 576 75 690 193 b 421 625 690 507 576 625 b 151 350 265 625 151 507 "},"õ":{"ha":842,"x_min":0,"x_max":0,"o":"m 210 831 b 335 958 218 903 264 958 b 497 904 406 958 446 904 b 561 961 532 904 551 921 l 629 956 b 501 819 619 872 582 819 b 338 874 428 819 390 874 b 278 825 310 874 286 860 l 210 831 m 49 350 b 421 721 49 564 215 721 b 793 350 626 721 793 564 b 421 -21 793 136 626 -21 b 49 350 215 -21 49 136 m 151 350 b 421 75 151 193 265 75 b 690 350 576 75 690 193 b 421 625 690 507 576 625 b 151 350 265 625 151 507 "},"ö":{"ha":842,"x_min":0,"x_max":0,"o":"m 564 814 b 494 883 528 814 494 843 b 564 953 494 924 528 953 b 633 883 600 953 633 924 b 564 814 633 843 600 814 m 278 814 b 208 883 242 814 208 843 b 278 953 208 924 242 953 b 347 883 314 953 347 924 b 278 814 347 843 314 814 m 49 350 b 421 721 49 564 215 721 b 793 350 626 721 793 564 b 421 -21 793 136 626 -21 b 49 350 215 -21 49 136 m 151 350 b 421 75 151 193 265 75 b 690 350 576 75 690 193 b 421 625 690 507 576 625 b 151 350 265 625 151 507 "},"ō":{"ha":842,"x_min":0,"x_max":0,"o":"m 219 931 l 628 931 l 628 835 l 219 835 m 49 350 b 421 721 49 564 215 721 b 793 350 626 721 793 564 b 421 -21 793 136 626 -21 b 49 350 215 -21 49 136 m 151 350 b 421 75 151 193 265 75 b 690 350 576 75 690 193 b 421 625 690 507 576 625 b 151 350 265 625 151 507 "},"ŏ":{"ha":842,"x_min":0,"x_max":0,"o":"m 421 775 b 204 968 313 775 219 850 l 300 968 b 421 867 321 903 360 867 b 542 968 482 867 521 903 l 638 968 b 421 775 622 850 529 775 m 49 350 b 421 721 49 564 215 721 b 793 350 626 721 793 564 b 421 -21 793 136 626 -21 b 49 350 215 -21 49 136 m 151 350 b 421 75 151 193 265 75 b 690 350 576 75 690 193 b 421 625 690 507 576 625 b 151 350 265 625 151 507 "},"ő":{"ha":842,"x_min":0,"x_max":0,"o":"m 574 968 l 706 968 l 563 767 l 486 767 m 360 968 l 492 968 l 349 767 l 272 767 m 49 350 b 421 721 49 564 215 721 b 793 350 626 721 793 564 b 421 -21 793 136 626 -21 b 49 350 215 -21 49 136 m 151 350 b 421 75 151 193 265 75 b 690 350 576 75 690 193 b 421 625 690 507 576 625 b 151 350 265 625 151 507 "},"ø":{"ha":842,"x_min":0,"x_max":0,"o":"m 165 76 b 49 350 93 143 49 239 b 421 721 49 564 215 721 b 604 675 488 721 550 704 l 656 746 l 731 692 l 678 622 b 793 350 749 556 793 460 b 421 -21 793 136 626 -21 b 240 24 356 -21 293 -4 l 183 -54 l 110 1 m 546 596 b 421 625 510 614 467 625 b 151 350 265 625 151 507 b 225 157 151 274 179 206 m 299 103 b 421 75 335 85 376 75 b 690 350 576 75 690 193 b 619 540 690 425 664 492 l 299 103 "},"ǿ":{"ha":842,"x_min":0,"x_max":0,"o":"m 467 968 l 604 968 l 475 767 l 393 767 m 165 76 b 49 350 93 143 49 239 b 421 721 49 564 215 721 b 604 675 488 721 550 704 l 656 746 l 731 692 l 678 622 b 793 350 749 556 793 460 b 421 -21 793 136 626 -21 b 240 24 356 -21 293 -4 l 183 -54 l 110 1 m 546 596 b 421 625 510 614 467 625 b 151 350 265 625 151 507 b 225 157 151 274 179 206 m 299 103 b 421 75 335 85 376 75 b 690 350 576 75 690 193 b 619 540 690 425 664 492 l 299 103 "},"œ":{"ha":1413,"x_min":0,"x_max":0,"o":"m 49 350 b 421 721 49 564 215 721 b 738 539 560 721 675 651 b 1036 721 797 650 906 721 b 1386 350 1229 721 1386 564 b 1385 328 1386 350 1386 339 l 789 328 b 1046 82 794 175 893 82 b 1286 175 1147 82 1232 117 l 1356 100 b 1046 -21 1278 22 1168 -21 b 735 156 900 -21 792 43 b 421 -21 672 46 558 -21 b 49 350 215 -21 49 136 m 1276 418 b 1036 625 1251 540 1157 625 b 796 418 915 625 821 540 m 151 350 b 421 75 151 193 265 75 b 690 350 576 75 690 193 b 421 625 690 507 576 625 b 151 350 265 625 151 507 "},"ŕ":{"ha":501,"x_min":0,"x_max":0,"o":"m 253 968 l 390 968 l 261 767 l 179 767 m 79 700 l 182 700 l 182 582 b 397 711 217 657 292 711 b 440 708 413 711 431 710 l 440 597 b 371 604 424 601 400 604 b 182 407 263 604 182 525 l 182 0 l 79 0 "},"ŗ":{"ha":501,"x_min":0,"x_max":0,"o":"m 79 700 l 182 700 l 182 582 b 397 711 217 657 292 711 b 440 708 413 711 431 710 l 440 597 b 371 604 424 601 400 604 b 182 407 263 604 182 525 l 182 0 l 79 0 m 217 -67 l 88 -268 l 6 -268 l 79 -67 "},"ř":{"ha":501,"x_min":0,"x_max":0,"o":"m 29 968 l 156 968 l 247 876 l 339 968 l 465 968 l 290 800 l 204 800 m 79 700 l 182 700 l 182 582 b 397 711 217 657 292 711 b 440 708 413 711 431 710 l 440 597 b 371 604 424 601 400 604 b 182 407 263 604 182 525 l 182 0 l 79 0 "},"ś":{"ha":575,"x_min":0,"x_max":0,"o":"m 296 968 l 433 968 l 304 767 l 222 767 m 113 185 b 289 79 129 132 185 79 b 443 186 418 79 443 146 b 268 332 443 263 378 289 b 78 536 157 376 78 425 b 289 721 78 644 165 721 b 492 600 383 721 451 679 l 408 557 b 290 626 383 603 349 626 b 181 536 228 626 181 594 b 333 410 181 474 242 444 b 546 186 468 358 546 299 b 289 -17 546 86 467 -17 b 25 151 160 -17 54 42 "},"ŝ":{"ha":575,"x_min":0,"x_max":0,"o":"m 253 968 l 339 968 l 514 800 l 388 800 l 296 892 l 204 800 l 78 800 m 113 185 b 289 79 129 132 185 79 b 443 186 418 79 443 146 b 268 332 443 263 378 289 b 78 536 157 376 78 425 b 289 721 78 644 165 721 b 492 600 383 721 451 679 l 408 557 b 290 626 383 603 349 626 b 181 536 228 626 181 594 b 333 410 181 474 242 444 b 546 186 468 358 546 299 b 289 -17 546 86 467 -17 b 25 151 160 -17 54 42 "},"š":{"ha":575,"x_min":0,"x_max":0,"o":"m 82 968 l 208 968 l 300 876 l 392 968 l 518 968 l 343 800 l 257 800 m 113 185 b 289 79 129 132 185 79 b 443 186 418 79 443 146 b 268 332 443 263 378 289 b 78 536 157 376 78 425 b 289 721 78 644 165 721 b 492 600 383 721 451 679 l 408 557 b 290 626 383 603 349 626 b 181 536 228 626 181 594 b 333 410 181 474 242 444 b 546 186 468 358 546 299 b 289 -17 546 86 467 -17 b 25 151 160 -17 54 42 "},"ș":{"ha":575,"x_min":0,"x_max":0,"o":"m 113 185 b 289 79 129 132 185 79 b 443 186 418 79 443 146 b 268 332 443 263 378 289 b 78 536 157 376 78 425 b 289 721 78 644 165 721 b 492 600 383 721 451 679 l 408 557 b 290 626 383 603 349 626 b 181 536 228 626 181 594 b 333 410 181 474 242 444 b 546 186 468 358 546 299 b 289 -17 546 86 467 -17 b 25 151 160 -17 54 42 m 335 -67 l 206 -268 l 124 -268 l 197 -67 "},"ş":{"ha":575,"x_min":0,"x_max":0,"o":"m 113 185 b 289 79 129 132 185 79 b 443 186 418 79 443 146 b 268 332 443 263 378 289 b 78 536 157 376 78 425 b 289 721 78 644 165 721 b 492 600 383 721 451 679 l 408 557 b 290 626 383 603 349 626 b 181 536 228 626 181 594 b 333 410 181 474 242 444 b 546 186 468 358 546 299 b 314 -15 546 90 474 -6 l 288 -64 b 388 -162 343 -64 388 -101 b 240 -275 388 -243 328 -275 b 131 -243 197 -275 153 -258 l 158 -189 b 239 -212 185 -204 204 -212 b 304 -162 275 -212 304 -193 b 194 -106 304 -115 264 -106 l 238 -12 b 25 151 132 0 50 57 "},"ß":{"ha":764,"x_min":0,"x_max":0,"o":"m 78 750 b 317 989 78 883 182 989 b 554 751 449 989 554 883 b 492 599 554 690 536 643 b 722 303 593 579 722 482 b 386 -21 722 121 582 -21 b 315 -14 363 -21 339 -18 l 315 92 b 386 79 338 83 363 79 b 614 303 511 79 614 179 b 386 524 614 425 511 524 b 315 511 361 524 338 519 l 315 608 b 446 750 397 624 446 671 b 317 889 446 826 388 889 b 186 750 243 889 186 828 l 186 0 l 78 0 "},"ť":{"ha":465,"x_min":0,"x_max":0,"o":"m 124 604 l 42 604 l 42 700 l 124 700 l 124 968 l 226 968 l 226 700 l 389 700 l 389 604 l 226 604 l 226 196 b 324 75 226 106 257 75 b 389 79 343 75 363 75 l 389 -10 b 311 -21 371 -18 340 -21 b 124 196 232 -21 124 7 m 381 968 l 518 968 l 389 767 l 307 767 "},"ţ":{"ha":428,"x_min":0,"x_max":0,"o":"m 124 604 l 42 604 l 42 700 l 124 700 l 124 968 l 226 968 l 226 700 l 389 700 l 389 604 l 226 604 l 226 196 b 324 75 226 106 257 75 b 389 79 343 75 363 75 l 389 -10 b 311 -21 371 -18 340 -21 b 124 196 232 -21 124 7 m 268 -67 l 139 -268 l 57 -268 l 131 -67 "},"ŧ":{"ha":428,"x_min":0,"x_max":0,"o":"m 124 408 l 35 408 l 35 504 l 124 504 l 124 604 l 42 604 l 42 700 l 124 700 l 124 968 l 226 968 l 226 700 l 389 700 l 389 604 l 226 604 l 226 504 l 382 504 l 382 408 l 226 408 l 226 196 b 324 75 226 106 257 75 b 389 79 343 75 363 75 l 389 -10 b 311 -21 371 -18 340 -21 b 124 196 232 -21 124 7 "},"ù":{"ha":760,"x_min":0,"x_max":0,"o":"m 200 968 l 338 968 l 411 767 l 329 767 m 71 700 l 174 700 l 174 275 b 347 85 174 158 239 85 b 538 282 458 85 538 164 l 538 700 l 640 700 l 640 163 b 693 75 640 101 654 75 b 729 78 703 75 719 76 l 729 0 b 664 -11 707 -11 686 -11 b 578 21 638 -11 603 -7 b 546 90 564 36 551 58 b 322 -11 514 42 444 -11 b 71 253 167 -11 71 96 "},"ú":{"ha":760,"x_min":0,"x_max":0,"o":"m 390 968 l 528 968 l 399 767 l 317 767 m 71 700 l 174 700 l 174 275 b 347 85 174 158 239 85 b 538 282 458 85 538 164 l 538 700 l 640 700 l 640 163 b 693 75 640 101 654 75 b 729 78 703 75 719 76 l 729 0 b 664 -11 707 -11 686 -11 b 578 21 638 -11 603 -7 b 546 90 564 36 551 58 b 322 -11 514 42 444 -11 b 71 253 167 -11 71 96 "},"û":{"ha":760,"x_min":0,"x_max":0,"o":"m 322 968 l 408 968 l 583 800 l 457 800 l 365 892 l 274 800 l 147 800 m 71 700 l 174 700 l 174 275 b 347 85 174 158 239 85 b 538 282 458 85 538 164 l 538 700 l 640 700 l 640 163 b 693 75 640 101 654 75 b 729 78 703 75 719 76 l 729 0 b 664 -11 707 -11 686 -11 b 578 21 638 -11 603 -7 b 546 90 564 36 551 58 b 322 -11 514 42 444 -11 b 71 253 167 -11 71 96 "},"ũ":{"ha":760,"x_min":0,"x_max":0,"o":"m 156 831 b 281 958 164 903 210 958 b 443 904 351 958 392 904 b 507 961 478 904 497 921 l 575 956 b 447 819 565 872 528 819 b 283 874 374 819 336 874 b 224 825 256 874 232 860 l 156 831 m 71 700 l 174 700 l 174 275 b 347 85 174 158 239 85 b 538 282 458 85 538 164 l 538 700 l 640 700 l 640 163 b 693 75 640 101 654 75 b 729 78 703 75 719 76 l 729 0 b 664 -11 707 -11 686 -11 b 578 21 638 -11 603 -7 b 546 90 564 36 551 58 b 322 -11 514 42 444 -11 b 71 253 167 -11 71 96 "},"ü":{"ha":760,"x_min":0,"x_max":0,"o":"m 508 814 b 439 883 472 814 439 843 b 508 953 439 924 472 953 b 578 883 544 953 578 924 b 508 814 578 843 544 814 m 222 814 b 153 883 186 814 153 843 b 222 953 153 924 186 953 b 292 883 258 953 292 924 b 222 814 292 843 258 814 m 71 700 l 174 700 l 174 275 b 347 85 174 158 239 85 b 538 282 458 85 538 164 l 538 700 l 640 700 l 640 163 b 693 75 640 101 654 75 b 729 78 703 75 719 76 l 729 0 b 664 -11 707 -11 686 -11 b 578 21 638 -11 603 -7 b 546 90 564 36 551 58 b 322 -11 514 42 444 -11 b 71 253 167 -11 71 96 "},"ū":{"ha":760,"x_min":0,"x_max":0,"o":"m 161 931 l 569 931 l 569 835 l 161 835 m 71 700 l 174 700 l 174 275 b 347 85 174 158 239 85 b 538 282 458 85 538 164 l 538 700 l 640 700 l 640 163 b 693 75 640 101 654 75 b 729 78 703 75 719 76 l 729 0 b 664 -11 707 -11 686 -11 b 578 21 638 -11 603 -7 b 546 90 564 36 551 58 b 322 -11 514 42 444 -11 b 71 253 167 -11 71 96 "},"ŭ":{"ha":760,"x_min":0,"x_max":0,"o":"m 365 775 b 149 968 257 775 164 850 l 244 968 b 365 867 265 903 304 867 b 486 968 426 867 465 903 l 582 968 b 365 775 567 850 474 775 m 71 700 l 174 700 l 174 275 b 347 85 174 158 239 85 b 538 282 458 85 538 164 l 538 700 l 640 700 l 640 163 b 693 75 640 101 654 75 b 729 78 703 75 719 76 l 729 0 b 664 -11 707 -11 686 -11 b 578 21 638 -11 603 -7 b 546 90 564 36 551 58 b 322 -11 514 42 444 -11 b 71 253 167 -11 71 96 "},"ů":{"ha":760,"x_min":0,"x_max":0,"o":"m 365 718 b 229 854 290 718 229 779 b 365 989 229 928 290 989 b 500 854 439 989 500 928 b 365 718 500 779 440 718 m 365 789 b 429 854 400 789 429 819 b 365 918 429 889 400 918 b 300 854 331 918 300 889 b 365 789 300 819 331 789 m 71 700 l 174 700 l 174 275 b 347 85 174 158 239 85 b 538 282 458 85 538 164 l 538 700 l 640 700 l 640 163 b 693 75 640 101 654 75 b 729 78 703 75 719 76 l 729 0 b 664 -11 707 -11 686 -11 b 578 21 638 -11 603 -7 b 546 90 564 36 551 58 b 322 -11 514 42 444 -11 b 71 253 167 -11 71 96 "},"ű":{"ha":760,"x_min":0,"x_max":0,"o":"m 514 968 l 646 968 l 503 767 l 426 767 m 300 968 l 432 968 l 289 767 l 213 767 m 71 700 l 174 700 l 174 275 b 347 85 174 158 239 85 b 538 282 458 85 538 164 l 538 700 l 640 700 l 640 163 b 693 75 640 101 654 75 b 729 78 703 75 719 76 l 729 0 b 664 -11 707 -11 686 -11 b 578 21 638 -11 603 -7 b 546 90 564 36 551 58 b 322 -11 514 42 444 -11 b 71 253 167 -11 71 96 "},"ų":{"ha":760,"x_min":0,"x_max":0,"o":"m 71 700 l 174 700 l 174 275 b 347 85 174 158 239 85 b 538 282 458 85 538 164 l 538 700 l 640 700 l 640 163 b 693 75 640 101 654 75 b 729 78 703 75 719 76 l 729 0 b 596 -126 665 -24 596 -69 b 665 -189 596 -169 629 -189 b 746 -168 694 -189 721 -182 l 728 -250 b 649 -269 703 -262 676 -269 b 508 -146 578 -269 508 -224 b 615 -3 508 -78 557 -25 b 568 32 599 3 581 14 b 546 90 558 46 550 65 b 322 -11 514 42 444 -11 b 71 253 167 -11 71 96 "},"ẁ":{"ha":1036,"x_min":0,"x_max":0,"o":"m 389 968 l 526 968 l 600 767 l 518 767 m 21 700 l 126 700 l 307 194 l 482 700 l 554 700 l 728 194 l 908 700 l 1015 700 l 763 0 l 694 0 l 518 510 l 342 0 l 274 0 "},"ẃ":{"ha":1036,"x_min":0,"x_max":0,"o":"m 511 968 l 649 968 l 519 767 l 438 767 m 21 700 l 126 700 l 307 194 l 482 700 l 554 700 l 728 194 l 908 700 l 1015 700 l 763 0 l 694 0 l 518 510 l 342 0 l 274 0 "},"ŵ":{"ha":1036,"x_min":0,"x_max":0,"o":"m 475 968 l 561 968 l 736 800 l 610 800 l 518 892 l 426 800 l 300 800 m 21 700 l 126 700 l 307 194 l 482 700 l 554 700 l 728 194 l 908 700 l 1015 700 l 763 0 l 694 0 l 518 510 l 342 0 l 274 0 "},"ẅ":{"ha":1036,"x_min":0,"x_max":0,"o":"m 661 814 b 592 883 625 814 592 843 b 661 953 592 924 625 953 b 731 883 697 953 731 924 b 661 814 731 843 697 814 m 375 814 b 306 883 339 814 306 843 b 375 953 306 924 339 953 b 444 883 411 953 444 924 b 375 814 444 843 411 814 m 21 700 l 126 700 l 307 194 l 482 700 l 554 700 l 728 194 l 908 700 l 1015 700 l 763 0 l 694 0 l 518 510 l 342 0 l 274 0 "},"ỳ":{"ha":697,"x_min":0,"x_max":0,"o":"m 207 968 l 344 968 l 418 767 l 336 767 m 89 -183 b 158 -194 111 -192 135 -194 b 218 -179 179 -194 199 -192 b 274 -94 238 -165 256 -140 l 304 -15 l 21 700 l 124 700 l 354 110 l 576 700 l 679 700 l 363 -119 b 294 -237 346 -162 325 -204 b 158 -290 258 -275 211 -290 b 89 -278 135 -290 108 -286 l 89 -183 "},"ý":{"ha":697,"x_min":0,"x_max":0,"o":"m 383 968 l 521 968 l 392 767 l 310 767 m 89 -183 b 158 -194 111 -192 135 -194 b 218 -179 179 -194 199 -192 b 274 -94 238 -165 256 -140 l 304 -15 l 21 700 l 124 700 l 354 110 l 576 700 l 679 700 l 363 -119 b 294 -237 346 -162 325 -204 b 158 -290 258 -275 211 -290 b 89 -278 135 -290 108 -286 l 89 -183 "},"ŷ":{"ha":697,"x_min":0,"x_max":0,"o":"m 313 968 l 399 968 l 574 800 l 447 800 l 356 892 l 264 800 l 138 800 m 89 -183 b 158 -194 111 -192 135 -194 b 218 -179 179 -194 199 -192 b 274 -94 238 -165 256 -140 l 304 -15 l 21 700 l 124 700 l 354 110 l 576 700 l 679 700 l 363 -119 b 294 -237 346 -162 325 -204 b 158 -290 258 -275 211 -290 b 89 -278 135 -290 108 -286 l 89 -183 "},"ÿ":{"ha":697,"x_min":0,"x_max":0,"o":"m 501 814 b 432 883 465 814 432 843 b 501 953 432 924 465 953 b 571 883 538 953 571 924 b 501 814 571 843 538 814 m 215 814 b 146 883 179 814 146 843 b 215 953 146 924 179 953 b 285 883 251 953 285 924 b 215 814 285 843 251 814 m 89 -183 b 158 -194 111 -192 135 -194 b 218 -179 179 -194 199 -192 b 274 -94 238 -165 256 -140 l 304 -15 l 21 700 l 124 700 l 354 110 l 576 700 l 679 700 l 363 -119 b 294 -237 346 -162 325 -204 b 158 -290 258 -275 211 -290 b 89 -278 135 -290 108 -286 l 89 -183 "},"ź":{"ha":693,"x_min":0,"x_max":0,"o":"m 365 968 l 503 968 l 374 767 l 292 767 m 39 61 l 468 604 l 85 604 l 85 700 l 614 700 l 614 632 l 188 96 l 636 96 l 636 0 l 39 0 "},"ž":{"ha":693,"x_min":0,"x_max":0,"o":"m 147 968 l 274 968 l 365 876 l 457 968 l 583 968 l 408 800 l 322 800 m 39 61 l 468 604 l 85 604 l 85 700 l 614 700 l 614 632 l 188 96 l 636 96 l 636 0 l 39 0 "},"ż":{"ha":693,"x_min":0,"x_max":0,"o":"m 367 814 b 297 883 331 814 297 843 b 367 953 297 924 331 953 b 436 883 403 953 436 924 b 367 814 436 843 403 814 m 39 61 l 468 604 l 85 604 l 85 700 l 614 700 l 614 632 l 188 96 l 636 96 l 636 0 l 39 0 "},"ŋ":{"ha":721,"x_min":0,"x_max":0,"o":"m 79 700 l 182 700 l 182 582 b 397 711 217 657 292 711 b 649 447 553 711 649 604 l 649 -72 b 600 -232 649 -143 632 -196 b 451 -289 567 -269 517 -287 b 400 -286 432 -289 411 -287 l 400 -189 b 449 -193 415 -192 433 -193 b 546 -72 515 -193 546 -161 l 546 425 b 371 615 546 542 482 615 b 182 418 263 615 182 536 l 182 0 l 79 0 "},"ð":{"ha":744,"x_min":0,"x_max":0,"o":"m 49 301 b 358 624 49 488 196 624 b 575 526 447 624 532 586 b 393 772 543 625 460 721 l 285 669 l 218 740 l 311 829 b 146 893 258 860 204 882 l 165 990 b 388 901 235 978 313 947 l 506 1013 l 572 942 l 468 843 b 683 479 571 757 654 636 b 696 339 694 414 696 369 b 372 -21 696 126 581 -21 b 49 301 193 -21 49 115 m 157 301 b 372 79 157 175 249 79 b 588 301 496 79 588 175 b 372 524 588 428 496 524 b 157 301 249 524 157 428 "},"þ":{"ha":833,"x_min":0,"x_max":0,"o":"m 79 968 l 182 968 l 182 596 b 431 721 217 656 293 721 b 785 350 626 721 785 564 b 431 -21 785 136 626 -21 b 182 104 293 -21 217 44 l 182 -268 l 79 -268 m 169 350 b 431 75 169 193 281 75 b 682 350 575 75 682 193 b 431 625 682 507 575 625 b 169 350 281 625 169 507 "},"ﬀ":{"ha":758,"x_min":0,"x_max":0,"o":"m 156 604 l 43 604 l 43 700 l 156 700 l 156 758 b 367 989 156 961 272 989 b 421 983 386 989 410 986 l 421 886 b 356 893 400 892 376 893 b 258 772 289 893 258 861 l 258 700 l 481 700 l 481 758 b 692 989 481 961 597 989 b 746 983 711 989 735 986 l 746 886 b 681 893 725 892 701 893 b 583 772 614 893 583 861 l 583 700 l 715 700 l 715 604 l 583 604 l 583 0 l 481 0 l 481 604 l 258 604 l 258 0 l 156 0 "},"ﬁ":{"ha":694,"x_min":0,"x_max":0,"o":"m 156 604 l 43 604 l 43 700 l 156 700 l 156 758 b 224 949 156 861 178 911 b 394 989 275 986 342 989 b 463 983 417 989 449 986 l 463 886 b 383 893 438 892 408 893 b 258 772 297 893 258 861 l 258 700 l 583 700 l 583 150 b 636 76 583 99 596 76 b 672 79 646 76 663 78 l 672 -6 b 607 -17 650 -15 629 -17 b 481 132 557 -17 481 -3 l 481 604 l 258 604 l 258 0 l 156 0 "},"ﬂ":{"ha":803,"x_min":0,"x_max":0,"o":"m 156 604 l 43 604 l 43 700 l 156 700 l 156 758 b 224 949 156 861 178 911 b 367 989 267 986 322 989 b 421 983 386 989 410 986 l 421 886 b 356 893 400 892 376 893 b 258 772 289 893 258 861 l 258 700 l 390 700 l 390 604 l 258 604 l 258 0 l 156 0 m 515 968 l 618 968 l 618 183 b 706 75 618 107 640 75 b 756 78 722 75 740 75 l 756 -10 b 692 -21 739 -19 714 -21 b 515 176 622 -21 515 -4 "},"ﬃ":{"ha":1019,"x_min":0,"x_max":0,"o":"m 156 604 l 43 604 l 43 700 l 156 700 l 156 758 b 367 989 156 961 272 989 b 421 983 386 989 410 986 l 421 886 b 356 893 400 892 376 893 b 258 772 289 893 258 861 l 258 700 l 481 700 l 481 758 b 549 949 481 861 503 911 b 719 989 600 986 667 989 b 788 983 742 989 774 986 l 788 886 b 708 893 763 892 733 893 b 583 772 622 893 583 861 l 583 700 l 908 700 l 908 150 b 961 76 908 99 921 76 b 997 79 971 76 988 78 l 997 -6 b 932 -17 975 -15 954 -17 b 806 132 882 -17 806 -3 l 806 604 l 583 604 l 583 0 l 481 0 l 481 604 l 258 604 l 258 0 l 156 0 "},"ﬄ":{"ha":1114,"x_min":0,"x_max":0,"o":"m 156 604 l 43 604 l 43 700 l 156 700 l 156 758 b 367 989 156 961 272 989 b 421 983 386 989 410 986 l 421 886 b 356 893 400 892 376 893 b 258 772 289 893 258 861 l 258 700 l 481 700 l 481 758 b 692 989 481 961 597 989 b 746 983 711 989 735 986 l 746 886 b 681 893 725 892 701 893 b 583 772 614 893 583 861 l 583 700 l 715 700 l 715 604 l 583 604 l 583 0 l 481 0 l 481 604 l 258 604 l 258 0 l 156 0 m 826 968 l 929 968 l 929 183 b 1017 75 929 107 951 75 b 1067 78 1033 75 1051 75 l 1067 -10 b 1003 -21 1050 -19 1025 -21 b 826 176 933 -21 826 -4 "},"¹":{"ha":308,"x_min":0,"x_max":0,"o":"m 122 894 l 56 894 l 56 968 l 201 968 l 201 456 l 122 456 "},"²":{"ha":451,"x_min":0,"x_max":0,"o":"m 61 511 l 274 757 b 307 829 294 782 307 804 b 232 904 307 871 272 904 b 157 817 190 904 157 864 l 79 817 b 232 979 79 907 147 979 b 386 829 317 979 386 913 b 339 710 386 799 385 764 l 178 531 l 399 531 l 399 456 l 61 456 "},"³":{"ha":481,"x_min":0,"x_max":0,"o":"m 228 444 b 36 571 138 444 64 494 l 106 597 b 228 521 124 550 169 521 b 344 622 297 521 344 563 b 222 728 344 682 296 728 b 150 717 197 728 164 724 l 122 753 l 269 894 l 85 894 l 85 968 l 396 968 l 396 922 l 256 793 b 311 785 278 793 293 790 b 421 622 375 761 421 697 b 228 444 421 518 339 444 "},"⁴":{"ha":485,"x_min":0,"x_max":0,"o":"m 325 557 l 42 557 l 42 611 l 219 968 l 301 968 l 133 632 l 325 632 l 325 735 l 404 735 l 404 456 l 325 456 "},"⁵":{"ha":461,"x_min":0,"x_max":0,"o":"m 211 444 b 32 563 135 444 68 492 l 101 596 b 211 521 124 550 167 521 b 322 631 272 521 322 571 b 204 739 322 693 271 739 b 133 715 178 739 151 731 l 76 733 l 118 968 l 368 968 l 368 894 l 186 894 l 169 806 b 217 814 178 810 197 814 b 399 631 318 814 399 731 b 211 444 399 526 314 444 "},"⁶":{"ha":490,"x_min":0,"x_max":0,"o":"m 246 444 b 63 629 146 444 63 526 b 125 778 63 683 89 724 b 253 968 128 782 131 786 l 347 968 l 233 806 b 256 807 233 806 242 807 b 428 629 344 807 428 729 b 246 444 428 525 346 444 m 246 521 b 351 626 304 521 351 569 b 246 732 351 685 304 732 b 143 626 186 732 143 688 b 246 521 143 565 188 521 "},"⁷":{"ha":474,"x_min":0,"x_max":0,"o":"m 333 894 l 71 894 l 71 968 l 439 968 l 439 932 l 203 456 l 115 456 "},"⁸":{"ha":494,"x_min":0,"x_max":0,"o":"m 249 444 b 71 615 149 444 71 522 b 157 753 71 682 113 736 b 108 842 129 771 108 807 b 249 979 108 918 171 979 b 386 842 324 979 386 918 b 338 753 386 807 365 771 b 424 615 382 736 424 682 b 249 444 424 522 346 444 m 249 774 b 308 840 282 774 308 804 b 249 904 308 874 282 904 b 186 840 213 904 186 874 b 249 774 186 804 213 774 m 249 521 b 344 615 300 521 344 564 b 249 710 344 668 300 710 b 150 615 194 710 150 668 b 249 521 150 564 194 521 "},"⁹":{"ha":497,"x_min":0,"x_max":0,"o":"m 267 631 b 240 628 267 631 256 628 b 71 799 156 628 71 699 b 249 979 71 899 151 979 b 426 801 346 979 426 901 b 358 638 426 742 397 696 l 236 456 l 143 456 m 249 699 b 351 801 314 699 351 744 b 249 904 351 857 306 904 b 147 801 192 904 147 857 b 249 699 147 744 192 699 "},"⁰":{"ha":499,"x_min":0,"x_max":0,"o":"m 249 444 b 74 607 161 444 85 518 b 71 713 71 628 71 654 b 74 818 71 769 71 797 b 249 979 85 907 161 979 b 426 818 342 979 418 911 b 428 713 428 796 428 771 b 426 607 428 653 428 629 b 249 444 418 514 342 444 m 249 521 b 350 613 301 521 346 560 b 353 713 353 632 353 656 b 350 813 353 768 353 792 b 249 904 346 865 301 904 b 149 813 199 904 157 864 b 147 713 147 793 147 764 b 149 613 147 654 147 632 b 249 521 157 561 199 521 "},"₁":{"ha":308,"x_min":0,"x_max":0,"o":"m 122 439 l 56 439 l 56 513 l 201 513 l 201 0 l 122 0 "},"₂":{"ha":451,"x_min":0,"x_max":0,"o":"m 61 56 l 274 301 b 307 374 294 326 307 349 b 232 449 307 415 272 449 b 157 361 190 449 157 408 l 79 361 b 232 524 79 451 147 524 b 386 374 317 524 386 457 b 339 254 386 343 385 308 l 178 75 l 399 75 l 399 0 l 61 0 "},"₃":{"ha":481,"x_min":0,"x_max":0,"o":"m 106 142 b 228 65 124 94 169 65 b 344 167 297 65 344 107 b 222 272 344 226 296 272 b 150 261 197 272 164 268 l 122 297 l 269 439 l 85 439 l 85 513 l 396 513 l 396 467 l 256 338 b 311 329 278 338 293 335 b 421 167 375 306 421 242 b 228 -11 421 63 339 -11 b 36 115 138 -11 64 39 "},"₄":{"ha":485,"x_min":0,"x_max":0,"o":"m 42 156 l 219 513 l 301 513 l 133 176 l 325 176 l 325 279 l 404 279 l 404 0 l 325 0 l 325 101 l 42 101 "},"₅":{"ha":461,"x_min":0,"x_max":0,"o":"m 101 140 b 211 65 124 94 167 65 b 322 175 272 65 322 115 b 204 283 322 238 271 283 b 133 260 178 283 151 275 l 76 278 l 118 513 l 368 513 l 368 439 l 186 439 l 169 350 b 217 358 178 354 197 358 b 399 175 318 358 399 275 b 211 -11 399 71 314 -11 b 32 107 135 -11 68 36 "},"₆":{"ha":490,"x_min":0,"x_max":0,"o":"m 246 -11 b 63 174 146 -11 63 71 b 125 322 63 228 89 268 b 253 513 128 326 131 331 l 347 513 l 233 350 b 256 351 233 350 242 351 b 428 174 344 351 428 274 b 246 -11 428 69 346 -11 m 246 65 b 351 171 304 65 351 114 b 246 276 351 229 304 276 b 143 171 186 276 143 232 b 246 65 143 110 188 65 "},"₇":{"ha":474,"x_min":0,"x_max":0,"o":"m 333 439 l 71 439 l 71 513 l 439 513 l 439 476 l 203 0 l 115 0 "},"₈":{"ha":494,"x_min":0,"x_max":0,"o":"m 71 160 b 157 297 71 226 113 281 b 108 386 129 315 108 351 b 249 524 108 463 171 524 b 386 386 324 524 386 463 b 338 297 386 351 365 315 b 424 160 382 281 424 226 b 249 -11 424 67 346 -11 b 71 160 149 -11 71 67 m 249 318 b 308 385 282 318 308 349 b 249 449 308 418 282 449 b 186 385 213 449 186 418 b 249 318 186 349 213 318 m 150 160 b 249 65 150 108 194 65 b 344 160 300 65 344 108 b 249 254 344 213 300 254 b 150 160 194 254 150 213 "},"₉":{"ha":481,"x_min":0,"x_max":0,"o":"m 258 175 b 232 172 258 175 247 172 b 63 343 147 172 63 243 b 240 524 63 443 143 524 b 418 346 338 524 418 446 b 350 182 418 286 389 240 l 228 0 l 135 0 m 240 243 b 343 346 306 243 343 289 b 240 449 343 401 297 449 b 139 346 183 449 139 401 b 240 243 139 289 183 243 "},"₀":{"ha":499,"x_min":0,"x_max":0,"o":"m 74 151 b 71 257 71 172 71 199 b 74 363 71 314 71 342 b 249 524 85 451 161 524 b 426 363 342 524 418 456 b 428 257 428 340 428 315 b 426 151 428 197 428 174 b 249 -11 418 58 342 -11 b 74 151 161 -11 85 63 m 149 157 b 249 65 157 106 199 65 b 350 157 301 65 346 104 b 353 257 353 176 353 200 b 350 357 353 313 353 336 b 249 449 346 410 301 449 b 149 357 199 449 157 408 b 147 257 147 338 147 308 b 149 157 147 199 147 176 "},"½":{"ha":978,"x_min":0,"x_max":0,"o":"m 650 968 l 753 968 l 211 0 l 108 0 m 150 894 l 83 894 l 83 968 l 229 968 l 229 456 l 150 456 m 560 56 l 772 301 b 806 374 793 326 806 349 b 731 449 806 415 771 449 b 656 361 689 449 656 408 l 578 361 b 731 524 578 451 646 524 b 885 374 815 524 885 457 b 838 254 885 343 883 308 l 676 75 l 897 75 l 897 0 l 560 0 "},"⅓":{"ha":1035,"x_min":0,"x_max":0,"o":"m 650 968 l 753 968 l 211 0 l 108 0 m 150 894 l 83 894 l 83 968 l 229 968 l 229 456 l 150 456 m 644 142 b 767 65 663 94 708 65 b 883 167 836 65 883 107 b 761 272 883 226 835 272 b 689 261 736 272 703 268 l 661 297 l 808 439 l 624 439 l 624 513 l 935 513 l 935 467 l 794 338 b 850 329 817 338 832 335 b 960 167 914 306 960 242 b 767 -11 960 63 878 -11 b 575 115 676 -11 603 39 "},"⅔":{"ha":1122,"x_min":0,"x_max":0,"o":"m 786 968 l 889 968 l 347 0 l 244 0 m 89 511 l 301 757 b 335 829 322 782 335 804 b 260 904 335 871 300 904 b 185 817 218 904 185 864 l 107 817 b 260 979 107 907 175 979 b 414 829 344 979 414 913 b 367 710 414 799 413 764 l 206 531 l 426 531 l 426 456 l 89 456 m 732 142 b 854 65 750 94 796 65 b 971 167 924 65 971 107 b 849 272 971 226 922 272 b 776 261 824 272 790 268 l 749 297 l 896 439 l 711 439 l 711 513 l 1022 513 l 1022 467 l 882 338 b 938 329 904 338 919 335 b 1047 167 1001 306 1047 242 b 854 -11 1047 63 965 -11 b 663 115 764 -11 690 39 "},"¼":{"ha":933,"x_min":0,"x_max":0,"o":"m 650 968 l 753 968 l 211 0 l 108 0 m 150 894 l 83 894 l 83 968 l 229 968 l 229 456 l 150 456 m 476 156 l 654 513 l 736 513 l 568 176 l 760 176 l 760 279 l 839 279 l 839 0 l 760 0 l 760 101 l 476 101 "},"¾":{"ha":1069,"x_min":0,"x_max":0,"o":"m 786 968 l 889 968 l 347 0 l 244 0 m 242 444 b 50 571 151 444 78 494 l 119 597 b 242 521 138 550 183 521 b 358 622 311 521 358 563 b 236 728 358 682 310 728 b 164 717 211 728 178 724 l 136 753 l 283 894 l 99 894 l 99 968 l 410 968 l 410 922 l 269 793 b 325 785 292 793 307 790 b 435 622 389 761 435 697 b 242 444 435 518 353 444 m 613 156 l 790 513 l 872 513 l 704 176 l 896 176 l 896 279 l 975 279 l 975 0 l 896 0 l 896 101 l 613 101 "},".":{"ha":261,"x_min":0,"x_max":0,"o":"m 61 60 b 131 129 61 100 94 129 b 200 60 167 129 200 100 b 131 -10 200 19 167 -10 b 61 60 94 -10 61 19 "},",":{"ha":267,"x_min":0,"x_max":0,"o":"m 75 154 l 213 154 l 38 -178 l -50 -178 "},":":{"ha":261,"x_min":0,"x_max":0,"o":"m 131 472 b 61 542 94 472 61 501 b 131 611 61 582 94 611 b 200 542 167 611 200 582 b 131 472 200 501 167 472 m 131 89 b 61 158 94 89 61 118 b 131 228 61 199 94 228 b 200 158 167 228 200 199 b 131 89 200 118 167 89 "},";":{"ha":317,"x_min":0,"x_max":0,"o":"m 158 472 b 89 542 122 472 89 501 b 158 611 89 582 122 611 b 228 542 194 611 228 582 b 158 472 228 501 194 472 m 96 154 l 233 154 l 71 -156 l -21 -156 "},"•":{"ha":364,"x_min":0,"x_max":0,"o":"m 182 239 b 68 353 122 239 68 286 b 182 467 68 419 122 467 b 296 353 242 467 296 419 b 182 239 296 286 242 239 "},"·":{"ha":261,"x_min":0,"x_max":0,"o":"m 131 281 b 61 350 94 281 61 310 b 131 419 61 390 94 419 b 200 350 167 419 200 390 b 131 281 200 310 167 281 "},"…":{"ha":756,"x_min":0,"x_max":0,"o":"m 556 60 b 625 129 556 100 589 129 b 694 60 661 129 694 100 b 625 -10 694 19 661 -10 b 556 60 589 -10 556 19 m 308 60 b 378 129 308 100 342 129 b 447 60 414 129 447 100 b 378 -10 447 19 414 -10 b 308 60 342 -10 308 19 m 61 60 b 131 129 61 100 94 129 b 200 60 167 129 200 100 b 131 -10 200 19 167 -10 b 61 60 94 -10 61 19 "},"‚":{"ha":260,"x_min":0,"x_max":0,"o":"m 75 154 l 213 154 l 38 -178 l -50 -178 "},"„":{"ha":474,"x_min":0,"x_max":0,"o":"m 306 154 l 443 154 l 268 -178 l 181 -178 m 75 154 l 213 154 l 38 -178 l -50 -178 "},"”":{"ha":490,"x_min":0,"x_max":0,"o":"m 357 968 l 494 968 l 313 618 l 225 618 m 126 968 l 264 968 l 82 618 l -6 618 "},"\"":{"ha":401,"x_min":0,"x_max":0,"o":"m 236 968 l 340 968 l 324 618 l 253 618 m 61 968 l 165 968 l 149 618 l 78 618 "},"’":{"ha":260,"x_min":0,"x_max":0,"o":"m 126 968 l 264 968 l 82 618 l -6 618 "},"‘":{"ha":249,"x_min":0,"x_max":0,"o":"m 188 968 l 275 968 l 143 618 l 6 618 "},"“":{"ha":479,"x_min":0,"x_max":0,"o":"m 418 968 l 506 968 l 374 618 l 236 618 m 188 968 l 275 968 l 143 618 l 6 618 "},"'":{"ha":226,"x_min":0,"x_max":0,"o":"m 61 968 l 165 968 l 149 618 l 78 618 "},"*":{"ha":539,"x_min":0,"x_max":0,"o":"m 111 626 l 215 746 l 63 793 l 92 871 l 236 810 l 229 968 l 311 968 l 303 810 l 449 871 l 476 793 l 324 746 l 429 626 l 364 576 l 269 707 l 175 576 "},"†":{"ha":400,"x_min":0,"x_max":0,"o":"m 158 750 l 46 746 l 46 836 l 156 832 l 151 968 l 249 968 l 244 832 l 354 836 l 354 746 l 242 750 l 249 418 l 151 418 "},"‡":{"ha":400,"x_min":0,"x_max":0,"o":"m 156 554 l 46 550 l 46 640 l 158 636 l 158 750 l 46 746 l 46 836 l 156 832 l 151 968 l 249 968 l 244 832 l 354 836 l 354 746 l 242 750 l 242 636 l 354 640 l 354 550 l 244 554 l 249 418 l 151 418 "},"-":{"ha":533,"x_min":0,"x_max":0,"o":"m 58 414 l 475 414 l 475 318 l 58 318 "},"–":{"ha":633,"x_min":0,"x_max":0,"o":"m 57 414 l 576 414 l 576 318 l 57 318 "},"—":{"ha":1000,"x_min":0,"x_max":0,"o":"m 57 414 l 943 414 l 943 318 l 57 318 "},"_":{"ha":411,"x_min":0,"x_max":0,"o":"m 414 -172 l 414 -268 l -3 -268 l -3 -172 "},"|":{"ha":344,"x_min":0,"x_max":0,"o":"m 121 1003 l 224 1003 l 224 -35 l 121 -35 "},"¦":{"ha":344,"x_min":0,"x_max":0,"o":"m 121 968 l 224 968 l 224 576 l 121 576 m 121 408 l 224 408 l 224 0 l 121 0 "},"+":{"ha":533,"x_min":0,"x_max":0,"o":"m 214 435 l 58 435 l 58 531 l 214 531 l 214 703 l 319 703 l 319 531 l 475 531 l 475 435 l 319 435 l 319 264 l 214 264 "},"−":{"ha":533,"x_min":0,"x_max":0,"o":"m 58 531 l 475 531 l 475 435 l 58 435 "},"±":{"ha":533,"x_min":0,"x_max":0,"o":"m 214 435 l 58 435 l 58 531 l 214 531 l 214 703 l 319 703 l 319 531 l 475 531 l 475 435 l 319 435 l 319 264 l 214 264 m 58 96 l 475 96 l 475 0 l 58 0 "},"×":{"ha":533,"x_min":0,"x_max":0,"o":"m 53 313 l 203 463 l 53 613 l 115 676 l 267 525 l 417 676 l 481 613 l 331 463 l 481 313 l 417 247 l 267 399 l 115 247 "},"÷":{"ha":592,"x_min":0,"x_max":0,"o":"m 296 606 b 226 675 260 606 226 635 b 296 744 226 715 260 744 b 365 675 332 744 365 715 b 296 606 365 635 332 606 m 58 531 l 533 531 l 533 435 l 58 435 m 296 221 b 226 290 260 221 226 250 b 296 360 226 331 260 360 b 365 290 332 360 365 331 b 296 221 365 250 332 221 "},"=":{"ha":592,"x_min":0,"x_max":0,"o":"m 58 654 l 533 654 l 533 558 l 58 558 m 58 426 l 533 426 l 533 331 l 58 331 "},"≠":{"ha":592,"x_min":0,"x_max":0,"o":"m 158 331 l 58 331 l 58 426 l 214 426 l 292 558 l 58 558 l 58 654 l 349 654 l 436 803 l 504 763 l 440 654 l 533 654 l 533 558 l 383 558 l 306 426 l 533 426 l 533 331 l 250 331 l 157 172 l 89 213 "},"#":{"ha":760,"x_min":0,"x_max":0,"o":"m 160 311 l 38 311 l 38 397 l 182 397 l 224 561 l 100 561 l 100 647 l 246 647 l 283 796 l 379 796 l 340 647 l 504 647 l 543 796 l 638 796 l 600 647 l 722 647 l 722 561 l 578 561 l 536 397 l 661 397 l 661 311 l 515 311 l 476 161 l 381 161 l 419 311 l 256 311 l 217 161 l 121 161 m 440 397 l 483 561 l 318 561 l 276 397 "},"¤":{"ha":896,"x_min":0,"x_max":0,"o":"m 194 257 b 122 463 147 314 122 386 b 194 668 122 538 147 610 l 74 782 l 144 851 l 254 725 b 449 790 310 767 378 790 b 644 725 521 790 588 767 l 754 851 l 825 782 l 703 669 b 776 463 750 611 776 539 b 703 257 776 386 750 314 b 825 143 750 213 825 143 l 754 75 b 643 199 754 75 685 150 b 449 136 588 157 519 136 b 253 201 376 136 308 158 b 144 75 213 154 144 75 l 74 144 m 449 226 b 679 463 575 226 679 332 b 449 700 679 593 575 700 b 219 463 322 700 219 593 b 449 226 219 332 322 226 "},"¬":{"ha":789,"x_min":0,"x_max":0,"o":"m 58 626 l 731 626 l 731 251 l 625 251 l 625 531 l 58 531 "},"<":{"ha":575,"x_min":0,"x_max":0,"o":"m 61 532 l 503 804 l 503 696 l 171 494 l 503 294 l 503 186 l 61 457 "},">":{"ha":574,"x_min":0,"x_max":0,"o":"m 72 294 l 404 494 l 72 696 l 72 804 l 514 532 l 514 457 l 72 186 "},"≤":{"ha":575,"x_min":0,"x_max":0,"o":"m 61 532 l 503 804 l 503 696 l 171 494 l 503 294 l 503 186 l 61 457 m 28 96 l 503 96 l 503 0 l 28 0 "},"≥":{"ha":575,"x_min":0,"x_max":0,"o":"m 72 294 l 404 494 l 72 696 l 72 804 l 514 532 l 514 457 l 72 186 m 72 96 l 547 96 l 547 0 l 72 0 "},"^":{"ha":722,"x_min":0,"x_max":0,"o":"m 322 968 l 400 968 l 690 486 l 581 486 l 361 858 l 140 486 l 32 486 "},"~":{"ha":581,"x_min":0,"x_max":0,"o":"m 39 421 b 178 549 49 493 99 549 b 396 494 272 549 326 494 b 474 551 435 494 460 511 l 542 546 b 400 410 531 463 489 410 b 181 464 301 410 251 464 b 107 415 146 464 117 450 l 39 421 "},"≈":{"ha":589,"x_min":0,"x_max":0,"o":"m 39 525 b 178 653 49 597 99 653 b 396 599 272 653 326 599 b 474 656 435 599 460 615 l 542 650 b 400 514 531 567 489 514 b 181 568 301 514 251 568 b 107 519 146 568 117 554 l 39 525 m 47 338 b 186 465 57 410 107 465 b 404 411 281 465 335 411 b 482 468 443 411 468 428 l 550 463 b 408 326 539 379 497 326 b 189 381 310 326 260 381 b 115 332 154 381 125 367 l 47 338 "},"‹":{"ha":358,"x_min":0,"x_max":0,"o":"m 49 351 l 201 594 l 310 594 l 157 351 l 310 108 l 201 108 "},"›":{"ha":358,"x_min":0,"x_max":0,"o":"m 201 351 l 49 594 l 157 594 l 310 351 l 157 108 l 49 108 "},"«":{"ha":575,"x_min":0,"x_max":0,"o":"m 265 351 l 418 594 l 526 594 l 374 351 l 526 108 l 418 108 m 49 351 l 201 594 l 310 594 l 157 351 l 310 108 l 201 108 "},"»":{"ha":575,"x_min":0,"x_max":0,"o":"m 418 351 l 265 594 l 374 594 l 526 351 l 374 108 l 265 108 m 201 351 l 49 594 l 157 594 l 310 351 l 157 108 l 49 108 "},"/":{"ha":586,"x_min":0,"x_max":0,"o":"m 435 1004 l 533 1004 l 97 -189 l 1 -189 "},"\\":{"ha":586,"x_min":0,"x_max":0,"o":"m 36 1004 l 132 1004 l 568 -189 l 472 -189 "},"(":{"ha":408,"x_min":0,"x_max":0,"o":"m 65 429 b 379 1096 65 685 172 914 l 431 1040 b 168 429 260 872 168 679 b 431 -182 168 179 260 -14 l 379 -237 b 65 429 172 -56 65 174 "},")":{"ha":408,"x_min":0,"x_max":0,"o":"m -22 -182 b 240 429 149 -14 240 179 b -22 1040 240 679 149 872 l 29 1096 b 343 429 236 914 343 685 b 29 -237 343 174 236 -56 l -22 -182 "},"[":{"ha":426,"x_min":0,"x_max":0,"o":"m 429 -168 l 429 -268 l 117 -268 l 117 968 l 429 968 l 429 868 l 225 868 l 225 -168 "},"]":{"ha":426,"x_min":0,"x_max":0,"o":"m 201 -168 l 201 868 l -3 868 l -3 968 l 310 968 l 310 -268 l -3 -268 l -3 -168 "},"{":{"ha":442,"x_min":0,"x_max":0,"o":"m 157 174 b 101 297 157 233 139 275 b 39 317 71 315 39 317 l 39 383 b 101 403 39 383 71 385 b 157 526 139 425 157 467 l 157 790 b 324 968 157 893 226 968 l 386 968 l 386 886 l 335 886 b 260 790 279 886 260 836 l 260 542 b 213 389 260 488 251 428 b 157 350 196 372 178 360 b 213 311 178 340 196 328 b 260 158 251 272 260 213 l 260 -90 b 335 -186 260 -136 279 -186 l 386 -186 l 386 -268 l 324 -268 b 157 -90 226 -268 157 -193 "},"}":{"ha":442,"x_min":0,"x_max":0,"o":"m 107 -186 b 182 -90 163 -186 182 -136 l 182 158 b 229 311 182 213 190 272 b 285 350 246 328 264 340 b 229 389 264 360 246 372 b 182 542 190 428 182 488 l 182 790 b 107 886 182 836 163 886 l 56 886 l 56 968 l 118 968 b 285 790 215 968 285 893 l 285 526 b 340 403 285 467 303 425 b 403 383 371 385 403 383 l 403 317 b 340 297 403 317 371 315 b 285 174 303 275 285 233 l 285 -90 b 118 -268 285 -193 215 -268 l 56 -268 l 56 -186 "},"⁄":{"ha":675,"x_min":0,"x_max":0,"o":"m 597 968 l 704 968 l 78 0 l -29 0 "},"%":{"ha":1018,"x_min":0,"x_max":0,"o":"m 267 556 b 50 772 147 556 50 653 b 267 989 50 892 147 989 b 483 772 386 989 483 892 b 267 556 483 653 386 556 m 771 968 l 878 968 l 251 0 l 144 0 m 267 640 b 392 772 335 640 392 699 b 267 904 392 844 335 904 b 142 772 197 904 142 844 b 267 640 142 699 197 640 m 535 196 b 751 413 535 315 632 413 b 968 196 871 413 968 315 b 751 -21 968 76 871 -21 b 535 196 632 -21 535 76 m 626 196 b 751 64 626 122 682 64 b 876 196 819 64 876 122 b 751 328 876 268 819 328 b 626 196 682 328 626 268 "},"‰":{"ha":1546,"x_min":0,"x_max":0,"o":"m 267 556 b 50 772 147 556 50 653 b 267 989 50 892 147 989 b 483 772 386 989 483 892 b 267 556 483 653 386 556 m 771 968 l 878 968 l 251 0 l 144 0 m 267 640 b 392 772 335 640 392 699 b 267 904 392 844 335 904 b 142 772 197 904 142 844 b 267 640 142 699 197 640 m 1063 196 b 1279 413 1063 315 1160 413 b 1496 196 1399 413 1496 315 b 1279 -21 1496 76 1399 -21 b 1063 196 1160 -21 1063 76 m 535 196 b 751 413 535 315 632 413 b 968 196 871 413 968 315 b 751 -21 968 76 871 -21 b 535 196 632 -21 535 76 m 1154 196 b 1279 64 1154 122 1210 64 b 1404 196 1347 64 1404 122 b 1279 328 1404 268 1347 328 b 1154 196 1210 328 1154 268 m 626 196 b 751 64 626 122 682 64 b 876 196 819 64 876 122 b 751 328 876 268 819 328 b 626 196 682 328 626 268 "},"°":{"ha":500,"x_min":0,"x_max":0,"o":"m 250 606 b 67 789 149 606 67 688 b 250 972 67 890 149 972 b 433 789 351 972 433 890 b 250 606 433 688 351 606 m 250 697 b 335 789 296 697 335 739 b 250 881 335 839 296 881 b 165 789 204 881 165 839 b 250 697 165 739 204 697 "},"´":{"ha":747,"x_min":0,"x_max":0,"o":"m 394 968 l 532 968 l 403 767 l 321 767 "},"`":{"ha":747,"x_min":0,"x_max":0,"o":"m 217 968 l 354 968 l 428 767 l 346 767 "},"ˆ":{"ha":847,"x_min":0,"x_max":0,"o":"m 363 968 l 485 968 l 654 800 l 528 800 l 424 903 l 319 800 l 193 800 "},"ˇ":{"ha":847,"x_min":0,"x_max":0,"o":"m 193 968 l 319 968 l 424 865 l 528 968 l 654 968 l 485 800 l 363 800 "},"˜":{"ha":808,"x_min":0,"x_max":0,"o":"m 194 861 b 319 989 203 933 249 989 b 482 935 390 989 431 935 b 546 992 517 935 536 951 l 614 986 b 486 850 604 903 567 850 b 322 904 413 850 375 904 b 263 856 294 904 271 890 l 194 861 "},"¨":{"ha":842,"x_min":0,"x_max":0,"o":"m 564 814 b 494 883 528 814 494 843 b 564 953 494 924 528 953 b 633 883 600 953 633 924 b 564 814 633 843 600 814 m 278 814 b 208 883 242 814 208 843 b 278 953 208 924 242 953 b 347 883 314 953 347 924 b 278 814 347 843 314 814 "},"¯":{"ha":861,"x_min":0,"x_max":0,"o":"m 226 968 l 635 968 l 635 872 l 226 872 "},"˘":{"ha":842,"x_min":0,"x_max":0,"o":"m 421 775 b 204 968 313 775 219 850 l 300 968 b 421 867 321 903 360 867 b 542 968 482 867 521 903 l 638 968 b 421 775 622 850 529 775 "},"˚":{"ha":332,"x_min":0,"x_max":0,"o":"m 167 718 b 31 854 92 718 31 779 b 167 989 31 928 92 989 b 301 854 240 989 301 928 b 167 718 301 779 242 718 m 167 789 b 231 854 201 789 231 819 b 167 918 231 889 201 918 b 101 854 132 918 101 889 b 167 789 101 819 132 789 "},"˝":{"ha":813,"x_min":0,"x_max":0,"o":"m 525 968 l 657 968 l 514 767 l 438 767 m 311 968 l 443 968 l 300 767 l 224 767 "},"˙":{"ha":729,"x_min":0,"x_max":0,"o":"m 365 814 b 296 883 329 814 296 843 b 365 953 296 924 329 953 b 435 883 401 953 435 924 b 365 814 435 843 401 814 "},"˛":{"ha":731,"x_min":0,"x_max":0,"o":"m 218 -151 b 322 0 218 -83 271 -32 l 411 0 b 306 -132 369 -26 306 -76 b 375 -194 306 -175 339 -194 b 456 -174 404 -194 431 -187 l 438 -256 b 358 -275 413 -268 386 -275 b 218 -151 288 -275 218 -229 "},"¸":{"ha":735,"x_min":0,"x_max":0,"o":"m 350 0 l 428 0 l 399 -64 b 490 -162 449 -64 490 -101 b 347 -275 490 -243 433 -275 b 244 -243 307 -275 264 -258 l 271 -189 b 346 -212 296 -204 314 -212 b 407 -162 381 -212 407 -193 b 306 -106 407 -115 369 -106 "},"?":{"ha":550,"x_min":0,"x_max":0,"o":"m 299 217 b 113 388 186 217 113 285 b 236 579 113 457 151 518 b 393 785 338 650 393 688 b 265 889 393 796 390 889 b 68 799 183 889 121 850 l 68 921 b 265 989 124 965 190 989 b 501 789 451 989 501 858 b 310 508 501 647 436 603 b 221 388 263 474 221 436 b 299 317 221 342 246 317 b 397 342 342 317 374 328 l 397 235 b 299 217 368 222 335 217 m 197 49 b 267 118 197 89 231 118 b 336 49 303 118 336 89 b 267 -21 336 8 303 -21 b 197 49 231 -21 197 8 "},"¿":{"ha":550,"x_min":0,"x_max":0,"o":"m 283 571 b 214 640 247 571 214 600 b 283 710 214 681 247 710 b 353 640 319 710 353 681 b 283 571 353 600 319 571 m 49 -100 b 240 181 49 42 114 86 b 329 301 288 215 329 253 b 251 372 329 347 304 372 b 153 347 208 372 176 361 l 153 454 b 251 472 182 467 215 472 b 438 301 364 472 438 404 b 314 110 438 232 399 171 b 157 -96 213 39 157 1 b 285 -200 157 -107 160 -200 b 482 -110 367 -200 429 -161 l 482 -232 b 285 -300 426 -276 360 -300 b 49 -100 99 -300 49 -169 "},"&":{"ha":1026,"x_min":0,"x_max":0,"o":"m 58 310 b 251 601 58 442 126 542 b 211 749 228 644 211 694 b 457 986 211 885 308 986 b 694 767 599 986 694 889 b 649 646 694 719 678 675 l 988 646 l 988 546 l 800 546 l 800 493 b 746 185 800 369 782 264 l 913 0 l 774 0 l 689 94 b 413 -21 615 13 526 -21 b 58 310 200 -21 58 114 m 665 274 b 692 493 683 333 692 407 l 692 546 l 485 546 l 485 613 b 592 754 547 626 592 682 b 454 886 592 831 533 886 b 319 749 393 886 319 843 b 444 517 319 661 379 590 m 167 310 b 413 79 167 168 261 79 b 617 174 496 79 567 103 b 310 515 322 499 372 436 b 167 310 214 472 167 404 "},"!":{"ha":333,"x_min":0,"x_max":0,"o":"m 101 968 l 232 968 l 210 215 l 124 215 m 97 49 b 167 118 97 89 131 118 b 236 49 203 118 236 89 b 167 -21 236 8 203 -21 b 97 49 131 -21 97 8 "},"¡":{"ha":333,"x_min":0,"x_max":0,"o":"m 167 571 b 97 640 131 571 97 600 b 167 710 97 681 131 710 b 236 640 203 710 236 681 b 167 571 236 600 203 571 m 124 474 l 210 474 l 232 -279 l 101 -279 "},"@":{"ha":1115,"x_min":0,"x_max":0,"o":"m 53 406 b 557 911 53 664 260 911 b 1063 429 824 911 1063 706 b 851 136 1063 239 982 136 b 706 229 781 136 729 169 b 553 156 667 182 613 156 b 314 399 419 156 314 260 b 553 642 314 538 419 642 b 692 581 613 642 654 624 l 692 629 l 786 629 l 786 311 b 851 224 786 224 832 224 b 968 429 888 224 968 229 b 557 824 968 647 783 824 b 147 406 332 824 147 636 b 557 -11 147 176 332 -11 b 749 43 624 -11 690 8 l 793 -40 b 557 -99 721 -79 639 -99 b 53 406 300 -99 53 110 m 407 399 b 553 247 407 313 468 247 b 699 399 635 247 699 313 b 553 551 699 488 635 551 b 407 399 468 551 407 488 "},"ª":{"ha":621,"x_min":0,"x_max":0,"o":"m 65 590 b 275 751 65 683 138 747 b 400 821 365 754 400 765 b 299 900 400 890 331 900 b 156 826 238 900 190 869 l 96 876 b 299 981 143 944 214 981 b 478 821 408 981 478 917 l 478 547 b 500 514 478 524 489 514 l 529 514 l 529 457 b 478 443 513 446 499 443 b 432 460 458 443 440 450 b 413 497 419 474 415 486 b 247 438 376 456 314 438 b 65 590 140 438 65 497 m 144 593 b 254 515 144 544 186 515 b 400 622 349 515 400 558 l 400 704 b 275 678 382 689 343 679 b 144 593 197 675 144 653 "},"º":{"ha":633,"x_min":0,"x_max":0,"o":"m 317 442 b 46 711 168 442 46 560 b 317 981 46 863 168 981 b 588 711 465 981 588 863 b 317 442 588 560 465 442 m 317 526 b 496 711 417 526 496 611 b 317 896 496 811 417 896 b 138 711 217 896 138 811 b 317 526 138 611 217 526 "},"№":{"ha":1631,"x_min":0,"x_max":0,"o":"m 128 968 l 222 968 l 749 206 l 749 968 l 857 968 l 857 0 l 769 0 l 236 771 l 236 0 l 128 0 m 1008 669 b 1283 943 1008 825 1132 943 b 1558 669 1435 943 1558 825 b 1283 396 1558 514 1435 396 b 1008 669 1132 396 1008 514 m 1111 669 b 1283 492 1111 571 1186 492 b 1456 669 1381 492 1456 571 b 1283 847 1456 768 1381 847 b 1111 669 1186 847 1111 768 m 1026 297 l 1547 297 l 1547 201 l 1026 201 "},"™":{"ha":1169,"x_min":0,"x_max":0,"o":"m 526 969 l 536 969 l 807 693 l 1078 969 l 1088 969 l 1088 453 l 983 453 l 983 736 l 807 542 l 631 736 l 631 453 l 526 453 m 194 868 l 31 868 l 31 968 l 463 968 l 463 868 l 299 868 l 299 453 l 194 453 "},"©":{"ha":1128,"x_min":0,"x_max":0,"o":"m 58 483 b 564 988 58 761 286 988 b 1069 483 842 988 1069 761 b 564 -22 1069 206 842 -22 b 58 483 286 -22 58 206 m 119 483 b 564 35 119 236 319 35 b 1008 483 808 35 1008 236 b 564 931 1008 731 808 931 b 119 483 319 931 119 731 m 290 490 b 572 769 290 651 415 769 b 783 683 651 769 725 740 l 719 614 b 572 675 679 651 625 675 b 392 490 468 675 392 594 b 572 306 392 385 468 306 b 719 368 625 306 679 328 l 783 294 b 572 210 726 238 651 210 b 290 490 415 210 290 329 "},"®":{"ha":547,"x_min":0,"x_max":0,"o":"m 272 547 b 49 768 149 547 49 639 b 272 989 49 897 149 989 b 499 768 397 989 499 897 b 272 547 499 639 397 547 m 272 589 b 453 768 375 589 453 663 b 272 950 453 876 375 950 b 93 768 169 950 93 876 b 272 589 93 663 169 589 m 190 900 l 281 900 b 363 821 329 900 363 867 b 321 747 363 789 347 763 l 382 646 l 326 646 l 271 739 l 238 739 l 238 646 l 190 646 m 279 778 b 315 818 300 778 315 796 b 279 856 315 839 300 856 l 238 856 l 238 778 "},"ℓ":{"ha":653,"x_min":0,"x_max":0,"o":"m 6 233 b 118 315 43 260 82 288 l 118 683 b 338 989 118 901 214 989 b 522 775 451 989 522 904 b 224 276 522 600 415 444 l 224 263 b 371 74 225 122 286 74 b 557 206 461 74 524 149 l 617 147 b 342 -21 553 33 461 -21 b 121 218 201 -21 121 83 b 42 164 94 199 68 181 m 221 392 b 421 772 344 515 421 643 b 331 893 421 860 382 893 b 221 707 274 893 221 839 l 221 392 "},"℮":{"ha":1263,"x_min":0,"x_max":0,"o":"m 278 142 b 632 13 371 63 494 13 b 1035 189 794 13 940 82 l 1076 189 b 631 -17 975 65 813 -17 b 61 514 317 -17 61 221 b 631 1044 61 807 317 1044 b 1201 514 944 1044 1201 807 l 1201 499 l 278 499 l 278 142 m 983 528 l 983 888 b 632 1014 890 965 768 1014 b 278 885 494 1014 371 964 l 278 528 "},"$":{"ha":756,"x_min":0,"x_max":0,"o":"m 164 263 b 342 89 196 175 254 110 l 342 483 b 114 754 208 544 114 606 b 342 988 114 881 208 975 l 342 1121 l 431 1121 l 431 985 b 636 838 522 971 592 921 l 544 790 b 431 882 518 840 482 869 l 431 557 b 701 250 607 478 701 414 b 431 -15 701 107 607 -4 l 431 -149 l 342 -149 l 342 -12 b 63 215 218 4 115 78 m 342 888 b 222 754 272 878 222 832 b 342 597 222 674 268 635 m 431 85 b 593 250 576 97 593 203 b 431 443 593 351 533 394 l 431 85 "},"¢":{"ha":740,"x_min":0,"x_max":0,"o":"m 292 142 b 53 488 151 192 53 322 b 426 858 53 757 281 858 l 440 858 l 463 968 l 557 968 l 531 846 b 693 758 593 831 649 801 l 631 686 b 511 751 599 718 558 740 l 400 214 b 432 211 403 214 414 211 b 629 289 478 211 561 222 l 693 215 b 424 117 607 133 492 117 b 381 119 406 117 390 118 l 356 0 l 261 0 m 421 763 b 419 763 421 763 419 763 b 156 488 267 760 156 643 b 311 236 156 372 217 278 "},"€":{"ha":1035,"x_min":0,"x_max":0,"o":"m 53 429 l 165 429 b 163 483 164 447 163 465 b 167 549 163 506 164 528 l 40 549 l 82 644 l 185 644 b 625 986 246 849 419 986 b 964 839 760 986 879 931 l 888 771 b 625 886 824 843 732 886 b 297 644 471 886 349 789 l 675 644 l 633 549 l 275 549 b 271 483 272 528 271 506 b 274 429 271 465 272 447 l 586 429 l 544 333 l 293 333 b 625 81 342 182 467 81 b 899 201 738 81 833 125 l 976 132 b 625 -19 889 36 765 -19 b 182 333 417 -19 239 122 l 11 333 "},"£":{"ha":814,"x_min":0,"x_max":0,"o":"m 56 93 l 68 93 b 304 301 260 93 304 211 b 269 413 304 333 289 374 l 126 413 l 126 513 l 214 513 b 147 704 178 575 147 639 b 432 989 147 861 275 989 b 717 704 589 989 717 861 l 610 704 b 433 889 610 803 532 889 b 256 704 335 889 256 806 b 333 513 256 650 294 575 l 546 513 l 546 413 l 386 413 b 413 301 401 376 413 339 b 331 100 413 197 372 129 l 753 100 l 753 0 l 56 0 "},"¥":{"ha":853,"x_min":0,"x_max":0,"o":"m 374 293 l 79 293 l 79 393 l 376 393 l 303 515 l 79 515 l 79 615 l 244 615 l 33 968 l 153 968 l 429 504 l 703 968 l 819 968 l 611 615 l 776 615 l 776 515 l 551 515 l 479 393 l 776 393 l 776 293 l 482 293 l 482 0 l 374 0 "},"ƒ":{"ha":521,"x_min":0,"x_max":0,"o":"m 174 519 l 68 519 l 86 607 l 192 607 l 224 756 b 485 989 269 967 386 989 b 549 983 507 989 526 988 l 529 889 b 458 893 497 893 472 893 b 329 768 382 893 347 851 l 294 607 l 433 607 l 415 519 l 276 519 l 136 -140 l 33 -140 "},"§":{"ha":718,"x_min":0,"x_max":0,"o":"m 222 -32 b 357 -189 222 -90 240 -189 b 490 -65 424 -189 490 -150 b 332 101 490 19 424 54 b 133 221 261 138 176 183 b 43 411 72 275 43 338 b 167 610 43 521 108 581 b 107 765 126 651 107 703 b 349 989 107 896 211 989 b 592 732 510 989 592 874 l 483 732 b 349 889 483 790 465 889 b 215 765 282 889 215 850 b 349 613 215 683 265 656 b 572 479 422 575 518 525 b 663 289 633 425 663 363 b 539 90 663 185 603 122 b 599 -65 579 49 599 -3 b 357 -289 599 -199 492 -289 b 114 -32 201 -289 114 -179 m 365 199 b 433 163 365 199 397 183 b 554 289 554 190 554 264 b 340 501 554 382 476 428 b 272 538 340 501 308 517 b 151 411 151 510 151 436 b 365 199 151 318 229 272 "},"¶":{"ha":749,"x_min":0,"x_max":0,"o":"m 322 371 b 39 669 164 379 39 510 b 338 968 39 835 172 968 l 733 968 l 733 868 l 642 868 l 642 0 l 533 0 l 533 868 l 431 868 l 431 0 l 322 0 "},"∆":{"ha":867,"x_min":0,"x_max":0,"o":"m 60 65 l 394 968 l 471 968 l 807 65 l 807 0 l 60 0 m 686 100 l 433 783 l 181 100 "},"Ω":{"ha":1083,"x_min":0,"x_max":0,"o":"m 85 100 l 242 100 b 65 497 133 190 65 332 b 542 986 65 779 281 986 b 1018 497 803 986 1018 779 b 842 100 1018 332 950 190 l 999 100 l 999 0 l 607 0 b 911 476 726 76 911 222 b 542 886 911 710 754 886 b 172 476 329 886 172 710 b 476 0 172 222 357 76 l 85 0 "},"μ":{"ha":729,"x_min":0,"x_max":0,"o":"m 174 -268 l 71 -268 l 71 700 l 174 700 l 174 281 b 364 79 174 147 249 79 b 556 282 481 79 556 147 l 556 700 l 658 700 l 658 281 b 360 -17 658 85 531 -17 b 174 51 293 -17 221 10 "},"π":{"ha":813,"x_min":0,"x_max":0,"o":"m 131 0 b 240 604 206 164 239 365 l 236 604 b 101 529 183 604 129 579 l 18 578 b 235 699 60 656 151 699 l 789 699 l 767 604 l 665 604 l 665 167 b 728 100 665 107 701 100 l 728 -3 b 726 -3 728 -3 726 -3 b 563 167 628 -3 563 65 l 563 604 l 343 604 b 242 0 342 394 307 154 l 131 0 "},"∞":{"ha":1097,"x_min":0,"x_max":0,"o":"m 289 242 b 67 454 158 242 67 332 b 301 672 67 571 165 672 b 544 526 407 672 479 596 b 808 672 614 601 697 672 b 1031 454 938 672 1031 583 b 794 242 1031 342 931 242 b 556 383 693 242 625 311 b 289 242 485 310 401 242 m 618 451 b 797 339 671 396 731 339 b 922 454 869 339 922 392 b 800 576 922 526 872 576 b 618 451 731 576 671 510 m 299 339 b 488 458 367 339 433 404 b 301 576 431 519 365 576 b 175 454 228 576 175 522 b 299 339 175 388 225 339 "},"∂":{"ha":704,"x_min":0,"x_max":0,"o":"m 50 289 b 347 614 50 454 172 614 b 540 513 418 614 499 582 b 540 514 540 513 540 514 b 319 892 540 654 504 892 b 185 831 239 892 206 857 l 111 896 b 319 989 138 924 197 989 b 581 819 436 989 526 931 b 639 528 628 722 639 607 b 535 96 639 385 626 213 b 314 -21 482 28 401 -21 b 50 289 140 -21 50 128 m 153 271 b 314 78 153 175 204 78 b 489 208 390 78 456 133 b 514 333 506 246 514 292 b 347 519 514 439 447 519 b 153 271 254 519 153 431 "},"∏":{"ha":910,"x_min":0,"x_max":0,"o":"m 186 872 l 43 872 l 43 968 l 867 968 l 867 872 l 724 872 l 724 0 l 621 0 l 621 872 l 289 872 l 289 0 l 186 0 "},"◊":{"ha":742,"x_min":0,"x_max":0,"o":"m 49 485 l 350 968 l 392 968 l 693 485 l 392 0 l 350 0 m 578 485 l 371 821 l 164 485 l 371 146 "},"∑":{"ha":794,"x_min":0,"x_max":0,"o":"m 88 74 l 404 514 l 110 894 l 110 968 l 707 968 l 707 868 l 238 868 l 521 501 l 228 100 l 722 100 l 722 0 l 88 0 "},"√":{"ha":989,"x_min":0,"x_max":0,"o":"m 49 500 l 260 589 l 497 33 l 840 1111 l 940 1111 l 543 -121 l 463 -121 l 206 481 l 79 428 "},"∫":{"ha":439,"x_min":0,"x_max":0,"o":"m 28 -42 b 86 -51 43 -47 61 -51 b 182 189 174 -51 182 43 b 164 768 182 326 164 576 b 360 1096 164 1014 247 1096 b 411 1090 379 1096 399 1093 l 411 1003 b 368 1010 401 1007 388 1010 b 268 760 279 1010 268 886 b 288 171 268 593 288 308 b 97 -142 288 -67 215 -142 b 28 -129 74 -142 47 -136 l 28 -42 "},"←":{"ha":871,"x_min":0,"x_max":0,"o":"m 29 361 l 351 682 l 421 613 l 219 411 l 833 411 l 833 311 l 218 311 l 421 110 l 351 40 "},"↑":{"ha":899,"x_min":0,"x_max":0,"o":"m 396 589 l 215 407 l 146 476 l 449 781 l 751 476 l 682 407 l 501 589 l 501 0 l 396 0 "},"→":{"ha":871,"x_min":0,"x_max":0,"o":"m 36 411 l 650 411 l 449 613 l 518 682 l 840 361 l 518 40 l 449 110 l 651 311 l 36 311 "},"↓":{"ha":899,"x_min":0,"x_max":0,"o":"m 215 315 l 396 133 l 396 700 l 501 700 l 501 133 l 682 315 l 751 246 l 449 -58 l 146 246 "},"↔":{"ha":1243,"x_min":0,"x_max":0,"o":"m 29 361 l 351 682 l 421 613 l 219 411 l 1022 411 l 821 613 l 890 682 l 1213 361 l 890 40 l 821 110 l 1024 311 l 218 311 l 421 110 l 351 40 "},"↕":{"ha":899,"x_min":0,"x_max":0,"o":"m 244 242 l 396 89 l 396 669 l 244 517 l 175 586 l 449 861 l 722 586 l 653 517 l 501 669 l 501 89 l 653 242 l 722 172 l 449 -103 l 175 172 "},"↖":{"ha":899,"x_min":0,"x_max":0,"o":"m 165 646 l 621 646 l 621 543 l 338 543 l 765 117 l 694 46 l 271 469 l 271 190 l 165 190 "},"↗":{"ha":899,"x_min":0,"x_max":0,"o":"m 561 543 l 278 543 l 278 646 l 733 646 l 733 190 l 628 190 l 628 469 l 204 46 l 133 117 "},"↘":{"ha":899,"x_min":0,"x_max":0,"o":"m 278 169 l 561 169 l 133 596 l 204 667 l 628 243 l 628 522 l 733 522 l 733 67 l 278 67 "},"↙":{"ha":899,"x_min":0,"x_max":0,"o":"m 165 522 l 271 522 l 271 243 l 694 667 l 765 596 l 338 169 l 621 169 l 621 67 l 165 67 "},"▲":{"ha":749,"x_min":0,"x_max":0,"o":"m 367 621 l 631 183 l 118 183 "},"►":{"ha":749,"x_min":0,"x_max":0,"o":"m 189 615 l 626 367 l 189 103 "},"▼":{"ha":749,"x_min":0,"x_max":0,"o":"m 118 538 l 631 538 l 367 100 "},"◄":{"ha":749,"x_min":0,"x_max":0,"o":"m 560 615 l 560 103 l 122 367 "},"◢":{"ha":749,"x_min":0,"x_max":0,"o":"m 468 624 l 601 139 l 106 261 "},"◣":{"ha":749,"x_min":0,"x_max":0,"o":"m 281 624 l 643 261 l 147 139 "},"◤":{"ha":749,"x_min":0,"x_max":0,"o":"m 147 581 l 643 458 l 281 96 "},"◥":{"ha":749,"x_min":0,"x_max":0,"o":"m 601 581 l 479 85 l 117 447 "}}}
